<svg width="11" height="15" viewBox="0 0 11 15" fill="none" xmlns="http://www.w3.org/2000/svg">
<path d="M9.16663 6.56255V3.75003C9.16663 1.68279 7.52229 0 5.5 0C3.47828 0 1.83337 1.68279 1.83337 3.75003V6.56255C0.820821 6.56255 0 7.40212 0 8.43745V13.125C0 14.1606 0.820821 15 1.83337 15H9.16663C10.179 15 11 14.1606 11 13.125V8.43745C11 7.40209 10.179 6.56255 9.16663 6.56255ZM5.95837 11.1062V12.6562C5.95837 12.9153 5.75339 13.125 5.50003 13.125C5.24667 13.125 5.04166 12.9153 5.04166 12.6562V11.1062C4.77264 10.9433 4.58339 10.6558 4.58339 10.3125C4.58339 9.79424 4.99384 9.37498 5.5 9.37498C6.00616 9.37498 6.41667 9.79424 6.41667 10.3125C6.4167 10.6558 6.22724 10.9433 5.95837 11.1062ZM7.33325 6.56255H3.66669V3.75003C3.66669 2.71548 4.48887 1.87498 5.5 1.87498C6.51065 1.87498 7.33322 2.71548 7.33322 3.75003V6.56255H7.33325Z" fill="#CBCBCB"/>
</svg>
