<svg width="16" height="16" viewBox="0 0 16 16" fill="none" xmlns="http://www.w3.org/2000/svg">
<g opacity="0.304" clip-path="url(#clip0)">
<path d="M2.28432 1.75977H2.75386V13.2954C2.75386 14.0618 3.37768 14.6856 4.14402 14.6856H8.90151H12.6847V15.1132C12.6847 15.6029 12.2872 16.0003 11.7976 16.0003H7.04179H2.28599C1.79633 16.0003 1.39891 15.6029 1.39891 15.1132V2.64687C1.3989 2.1572 1.79465 1.75977 2.28432 1.75977Z" fill="black"/>
<path d="M8.90154 14.1819H4.14574C3.65608 14.1819 3.25865 13.7845 3.25865 13.2949V1.75921V0.828506C3.25865 0.33884 3.65608 -0.0585938 4.14574 -0.0585938H8.90154H10.4829V0.23487C10.4796 0.265055 10.4779 0.296917 10.4779 0.328779V2.26229V2.75866C10.4779 3.44788 11.038 4.00798 11.7272 4.00798H12.2235H14.1571C14.1822 4.00798 14.209 4.0063 14.2342 4.00462H14.5428V13.2949C14.5428 13.7845 14.1453 14.1819 13.6557 14.1819H12.683H8.90154ZM8.7221 11.1668H11.8228C12.0542 11.1668 12.242 10.979 12.242 10.7476C12.242 10.5162 12.0542 10.3284 11.8228 10.3284H8.72043C8.48901 10.3284 8.30119 10.5162 8.30119 10.7476C8.30119 10.979 8.49069 11.1668 8.7221 11.1668ZM5.61977 9.02707H11.8228C12.0542 9.02707 12.242 8.83923 12.242 8.60783C12.242 8.3764 12.0542 8.1886 11.8228 8.1886H5.61977C5.38835 8.1886 5.20054 8.3764 5.20054 8.60783C5.20054 8.83923 5.38835 9.02707 5.61977 9.02707ZM11.8228 5.91633H5.61977C5.38835 5.91633 5.20054 6.10415 5.20054 6.33557C5.20054 6.56698 5.38835 6.7548 5.61977 6.7548H11.8228C12.0542 6.7548 12.242 6.56698 12.242 6.33557C12.242 6.10415 12.0542 5.91633 11.8228 5.91633Z" fill="black"/>
<path d="M14.1566 3.50613H11.7267C11.725 3.50613 11.7217 3.50613 11.72 3.50613C11.3142 3.50278 10.9855 3.1741 10.9822 2.76828C10.9822 2.7666 10.9822 2.76325 10.9822 2.76157V0.330012C10.9822 0.105302 11.1666 -0.0439453 11.3578 -0.0439453C11.45 -0.0439453 11.5422 -0.0104066 11.6194 0.0667325L14.4216 2.86889C14.6563 3.10366 14.4903 3.50613 14.1566 3.50613Z" fill="black"/>
</g>
<defs>
<clipPath id="clip0">
<rect width="16" height="16" fill="white" transform="matrix(-1 0 0 1 16 0)"/>
</clipPath>
</defs>
</svg>
