<svg width="24" height="17" viewBox="0 0 24 17" fill="none" xmlns="http://www.w3.org/2000/svg">
<path d="M7.71428 15.3C11.9748 15.3 15.4286 11.875 15.4286 7.65C15.4286 3.42502 11.9748 0 7.71428 0C3.4538 0 0 3.42502 0 7.65C0 11.875 3.4538 15.3 7.71428 15.3Z" fill="#FAA41B"/>
<path d="M7.71425 5.09981C8.1876 5.09981 8.57139 5.48039 8.57139 5.94981H10.2857C10.2812 4.87307 9.59514 3.91512 8.57139 3.5562V2.5498H6.85711V3.5562C5.52071 4.02296 4.81893 5.47572 5.28971 6.80097C5.65186 7.82055 6.62418 8.50182 7.71425 8.49981C8.1876 8.49981 8.57139 8.88039 8.57139 9.34981C8.57139 9.81922 8.1876 10.1998 7.71425 10.1998C7.24089 10.1998 6.85711 9.81922 6.85711 9.34981H5.14282C5.14732 10.4265 5.83336 11.3845 6.85711 11.7434V12.7498H8.57139V11.7434C9.90778 11.2767 10.6096 9.8239 10.1388 8.49864C9.77664 7.47906 8.80432 6.79779 7.71425 6.79981C7.24089 6.79981 6.85711 6.41922 6.85711 5.94981C6.85711 5.48039 7.24089 5.09981 7.71425 5.09981Z" fill="#F08015"/>
<path d="M16.2858 16.9997C20.5463 16.9997 24.0001 13.5747 24.0001 9.34971C24.0001 5.12473 20.5463 1.69971 16.2858 1.69971C12.0253 1.69971 8.57153 5.12473 8.57153 9.34971C8.57153 13.5747 12.0253 16.9997 16.2858 16.9997Z" fill="#FFD33F"/>
<path d="M16.2858 8.5C15.8124 8.5 15.4286 8.11941 15.4286 7.65C15.4286 7.18059 15.8124 6.8 16.2858 6.8C16.7591 6.8 17.1429 7.18059 17.1429 7.65H18.8572C18.8527 6.57326 18.1667 5.61531 17.1429 5.2564V4.25H15.4286V5.2564C14.0922 5.72316 13.3905 7.17591 13.8612 8.50117C14.2234 9.52074 15.1957 10.2021 16.2858 10.2C16.7591 10.2 17.1429 10.5806 17.1429 11.05C17.1429 11.5194 16.7591 11.9 16.2858 11.9C15.8124 11.9 15.4286 11.5194 15.4286 11.05H13.7144C13.7189 12.1267 14.4049 13.0847 15.4286 13.4436V14.45H17.1429V13.4436C18.4793 12.9768 19.1811 11.5241 18.7103 10.1988C18.3482 9.17926 17.3759 8.49798 16.2858 8.5Z" fill="#FAA41B"/>
</svg>
