<svg width="44" height="60" viewBox="0 0 44 60" fill="none" xmlns="http://www.w3.org/2000/svg">
<path d="M18.8966 31.0345H12.6897V18.6207H8.55174L22 8.27586V0C10.0019 0 0.275879 9.72606 0.275879 21.7241C0.275879 33.7242 22 60 22 60V31.0345H18.8966Z" fill="#BEC3CC"/>
<path d="M22 0V8.27586L35.4483 18.6207H31.3103V31.0345H22V60C22 60 43.7241 33.7242 43.7241 21.7241C43.7241 9.72606 33.9981 0 22 0Z" fill="#BEC3CC"/>
<path d="M18.8965 22.7578H25.1034V31.0337H18.8965V22.7578Z" fill="#E2E5E8"/>
<path d="M12.6896 31.034H18.8965V22.7581H25.1034V31.034H31.3103V18.6202H35.4482L21.9999 8.27539L8.55164 18.6202H12.6896V31.034Z" fill="#959DAB"/>
</svg>
