<svg width="147" height="105" viewBox="0 0 147 105" fill="none" xmlns="http://www.w3.org/2000/svg">
<g opacity="0.388">
<path d="M47.2498 94.5002C73.3451 94.5002 94.4995 73.3456 94.4995 47.2501C94.4995 21.1546 73.3451 0 47.2498 0C21.1544 0 0 21.1546 0 47.2501C0 73.3456 21.1544 94.5002 47.2498 94.5002Z" fill="#D9DDE1"/>
<path d="M47.2497 31.5C50.149 31.5 52.4997 33.8507 52.4997 36.75H62.9996C62.972 30.0996 58.7701 24.1828 52.4997 21.966V15.75H41.9997V21.966C33.8143 24.8489 29.5159 33.8218 32.3995 42.0073C34.6176 48.3046 40.573 52.5125 47.2497 52.5001C50.149 52.5001 52.4997 54.8508 52.4997 57.7501C52.4997 60.6494 50.149 63.0001 47.2497 63.0001C44.3504 63.0001 41.9997 60.6494 41.9997 57.7501H31.4998C31.5273 64.4005 35.7293 70.3173 41.9997 72.5341V78.7501H52.4997V72.5341C60.685 69.6512 64.9834 60.6783 62.0999 52.4929C59.8818 46.1955 53.9263 41.9876 47.2497 42C44.3504 42 41.9997 39.6494 41.9997 36.75C41.9997 33.8507 44.3504 31.5 47.2497 31.5Z" fill="#BCC3CE"/>
<path d="M99.7503 105C125.846 105 147 83.8456 147 57.7501C147 31.6546 125.846 10.5 99.7503 10.5C73.6549 10.5 52.5005 31.6546 52.5005 57.7501C52.5005 83.8456 73.6549 105 99.7503 105Z" fill="#A6ADB9"/>
<path d="M99.7497 52.5C96.8504 52.5 94.4997 50.1494 94.4997 47.25C94.4997 44.3507 96.8504 42 99.7497 42C102.649 42 105 44.3507 105 47.25H115.5C115.472 40.5996 111.27 34.6828 105 32.466V26.25H94.4997V32.466C86.3143 35.3489 82.0159 44.3218 84.8995 52.5073C87.1176 58.8046 93.073 63.0132 99.7497 63.0001C102.649 63.0001 105 65.3508 105 68.2501C105 71.1494 102.649 73.5001 99.7497 73.5001C96.8504 73.5001 94.4997 71.1494 94.4997 68.2501H83.9998C84.0273 74.9005 88.2293 80.8173 94.4997 83.0341V89.2501H105V83.0341C113.185 80.1512 117.483 71.1783 114.6 62.9929C112.382 56.6955 106.426 52.4876 99.7497 52.5Z" fill="#6B778A"/>
</g>
</svg>
