<svg width="24" height="15" viewBox="0 0 24 15" fill="none" xmlns="http://www.w3.org/2000/svg">
<path d="M23.1132 15H0.88658C0.396876 15 0 14.6057 0 14.1194V0.880229C0 0.393946 0.396876 0 0.88658 0H23.1132C23.6029 0 24 0.393946 24 0.880229V14.1194C24 14.6057 23.6029 15 23.1132 15Z" fill="#5B8EFF"/>
<path d="M9.24007 7.94181H3.20453C2.66172 7.94181 2.22217 7.50512 2.22217 6.96691V3.62286C2.22217 3.08426 2.66231 2.64795 3.20453 2.64795H9.24007C9.78268 2.64795 10.2222 3.08465 10.2222 3.62286V6.96691C10.2222 7.50512 9.78229 7.94181 9.24007 7.94181Z" fill="#FFD33F"/>
<path d="M3.55566 2.64795H4.4446V7.94181H3.55566V2.64795Z" fill="#FAA41B"/>
<path d="M4 5.73584H10.2222V6.61802H4V5.73584Z" fill="#FAA41B"/>
<path d="M4 3.97119H10.2222V4.85357H4V3.97119Z" fill="#FAA41B"/>
<path d="M4.88879 12.3531H3.11111C2.62003 12.3531 2.22217 11.9582 2.22217 11.4708C2.22217 10.9833 2.62003 10.5884 3.11111 10.5884H4.88879C5.38007 10.5884 5.77773 10.9833 5.77773 11.4708C5.77773 11.9578 5.38007 12.3531 4.88879 12.3531Z" fill="#AAC4FF"/>
<path d="M10.2223 12.3531H8.44441C7.95333 12.3531 7.55566 11.9582 7.55566 11.4708C7.55566 10.9833 7.95333 10.5884 8.44441 10.5884H10.2223C10.7134 10.5884 11.1112 10.9833 11.1112 11.4708C11.1112 11.9578 10.7134 12.3531 10.2223 12.3531Z" fill="#AAC4FF"/>
<path d="M21.7778 8.38286H16.0001C15.7549 8.38286 15.5557 8.18531 15.5557 7.94168C15.5557 7.69824 15.7549 7.50049 16.0001 7.50049H21.7778C22.0233 7.50049 22.2223 7.69824 22.2223 7.94168C22.2223 8.18531 22.0233 8.38286 21.7778 8.38286Z" fill="#AAC4FF"/>
<path d="M14.2223 8.38286H12.4445C12.1992 8.38286 12 8.18531 12 7.94168C12 7.69824 12.1992 7.50049 12.4445 7.50049H14.2223C14.4676 7.50049 14.6666 7.69824 14.6666 7.94168C14.6666 8.18531 14.4676 8.38286 14.2223 8.38286Z" fill="#AAC4FF"/>
<path d="M12.4443 4.41211H21.7776V6.17686H12.4443V4.41211Z" fill="#AAC4FF"/>
<path d="M18.2222 3.08892H12.4445C12.1992 3.08892 12 2.89117 12 2.64773C12 2.4041 12.1992 2.20654 12.4445 2.20654H18.2222C18.4676 2.20654 18.6667 2.4041 18.6667 2.64773C18.6667 2.89117 18.4676 3.08892 18.2222 3.08892Z" fill="#AAC4FF"/>
<path d="M21.7778 3.08892H20.0001C19.7547 3.08892 19.5557 2.89117 19.5557 2.64773C19.5557 2.4041 19.7547 2.20654 20.0001 2.20654H21.7778C22.0233 2.20654 22.2223 2.4041 22.2223 2.64773C22.2223 2.89117 22.0233 3.08892 21.7778 3.08892Z" fill="#AAC4FF"/>
<path d="M19.9999 11.4711C19.9999 12.4456 19.204 13.2357 18.222 13.2357C17.2403 13.2357 16.4443 12.4456 16.4443 11.4711C16.4443 10.4966 17.2403 9.70654 18.222 9.70654C19.204 9.70654 19.9999 10.4966 19.9999 11.4711Z" fill="#FFD33F"/>
<path d="M17.7775 11.4711C17.7775 12.4456 16.9816 13.2357 15.9999 13.2357C15.0181 13.2357 14.2222 12.4456 14.2222 11.4711C14.2222 10.4966 15.0181 9.70654 15.9999 9.70654C16.9816 9.70654 17.7775 10.4966 17.7775 11.4711Z" fill="#DD352E"/>
</svg>
