<svg width="14" height="14" viewBox="0 0 14 14" fill="none" xmlns="http://www.w3.org/2000/svg">
<g opacity="0.3">
<path d="M7 0C3.14013 0 0 3.1402 0 7C0 10.8598 3.14013 14 7 14C10.8598 14 14 10.8599 14 7C14 3.14016 10.8598 0 7 0ZM9.94368 11.675L9.64202 11.1561C9.60721 11.0963 9.54244 11.059 9.47303 11.059C9.43847 11.059 9.40568 11.068 9.37547 11.0855C9.33037 11.1117 9.29825 11.1538 9.28491 11.2042C9.27168 11.2546 9.27868 11.3071 9.30488 11.3522L9.60695 11.8717C8.93207 12.2343 8.17357 12.4606 7.36842 12.5139V11.781C7.36842 11.5776 7.2034 11.4126 7 11.4126C6.79656 11.4126 6.63158 11.5776 6.63158 11.781V12.5138C5.83833 12.4613 5.09033 12.2408 4.42293 11.8874L4.72176 11.3661C4.74766 11.321 4.75444 11.2684 4.74081 11.2181C4.72717 11.1678 4.69479 11.1259 4.64962 11.1C4.61963 11.0828 4.5871 11.0741 4.55295 11.0741C4.48309 11.0741 4.41811 11.1117 4.38336 11.1722L4.08487 11.6929C3.41917 11.2778 2.8476 10.7254 2.41051 10.0752L3.04375 9.70963C3.21993 9.6079 3.28031 9.38258 3.17855 9.20636C3.07683 9.03018 2.85151 8.9698 2.67533 9.07156L2.0412 9.43766C1.70756 8.76164 1.50824 8.00818 1.47811 7.21203L2.07974 7.21018C2.13183 7.21004 2.18072 7.18959 2.21742 7.15267C2.25411 7.11576 2.27426 7.06668 2.27408 7.01459C2.27375 6.90738 2.18625 6.82021 2.07907 6.82021L1.47678 6.82205C1.50253 6.0134 1.70284 5.24816 2.04116 4.56264L2.67529 4.92874C2.73328 4.96223 2.79661 4.97814 2.85909 4.97814C2.98642 4.97814 3.11028 4.91208 3.17852 4.79389C3.28027 4.61768 3.21989 4.39235 3.04371 4.29063L2.41047 3.92505C2.84126 3.28411 3.40274 2.73818 4.05624 2.32522L4.35791 2.8441C4.37537 2.87409 4.39932 2.898 4.42919 2.91517C4.48881 2.94928 4.56437 2.94965 4.62442 2.91469C4.66952 2.88849 4.70168 2.84631 4.71498 2.79595C4.72832 2.74562 4.7212 2.69312 4.69505 2.6481L4.39302 2.12855C5.06793 1.76592 5.82643 1.53967 6.63154 1.48639V2.21915C6.63154 2.42263 6.79652 2.58757 6.99996 2.58757C7.2034 2.58757 7.36838 2.42263 7.36838 2.21915V1.48639C8.16159 1.53886 8.90956 1.75939 9.57696 2.11275L9.27813 2.63403C9.22467 2.72731 9.25706 2.84672 9.35031 2.90017C9.38026 2.91734 9.41279 2.92607 9.44698 2.92607C9.51687 2.92607 9.58182 2.88849 9.61645 2.82804L9.91502 2.30727C10.5808 2.7223 11.1524 3.27478 11.5895 3.92497L10.9562 4.29056C10.78 4.39228 10.7197 4.61761 10.8214 4.79382C10.8897 4.91201 11.0135 4.97807 11.1408 4.97807C11.2033 4.97807 11.2667 4.96215 11.3246 4.92866L11.9588 4.56256C12.2924 5.23854 12.4917 5.99204 12.5219 6.78819L11.9202 6.79004C11.8681 6.79018 11.8192 6.81063 11.7826 6.84755C11.7459 6.8845 11.7257 6.9335 11.7259 6.98559C11.7261 7.05512 11.7638 7.11977 11.8242 7.15444C11.8535 7.17121 11.8868 7.18001 11.9209 7.18001H11.9215L12.5232 7.17817C12.4975 7.98682 12.2972 8.7521 11.9588 9.43758L11.3247 9.07148C11.1485 8.96973 10.9232 9.03011 10.8215 9.20633C10.7197 9.38251 10.7801 9.60783 10.9563 9.70955L11.5895 10.0751C11.1586 10.716 10.5972 11.262 9.94368 11.675Z" fill="black"/>
<path d="M9.72289 5.00254L7.3598 6.31368C7.25222 6.2572 7.12998 6.22482 6.99996 6.22482C6.86999 6.22482 6.74774 6.25716 6.64016 6.31368L4.27708 5.00254C4.05366 4.87853 3.77193 4.95922 3.64789 5.18266C3.52395 5.40611 3.60456 5.68781 3.82808 5.81182L6.23914 7.14959C6.30881 7.50641 6.62274 7.7758 6.99993 7.7758C7.37712 7.7758 7.69109 7.50641 7.76072 7.14959L10.1717 5.81182C10.3952 5.68784 10.4758 5.40615 10.3519 5.18266C10.2281 4.95918 9.94641 4.87853 9.72289 5.00254Z" fill="black"/>
</g>
</svg>
