<svg width="165" height="57" viewBox="0 0 165 57" fill="none" xmlns="http://www.w3.org/2000/svg">
<g opacity="0.972" filter="url(#filter0_f)">
<path d="M158 45.5C132 44.6738 123.197 50 81.5 50C39.8025 50 17 45.1061 7 45.5C16.5 45.5 40.8025 43 82.5 43C124.197 43 129.5 45.5 158 45.5Z" fill="#D2D2D2"/>
</g>
<path d="M111.321 43.85H131C131 43.22 130.586 42.8 129.964 42.8H111.321V43.85Z" fill="#FFCB5B"/>
<mask id="path-3-inside-1" fill="white">
<path fill-rule="evenodd" clip-rule="evenodd" d="M129.964 44.0001H107.179C106.557 44.0001 106.143 43.5801 106.143 42.95V40.85C106.143 40.2201 106.557 39.8 107.179 39.8H129.964C130.586 39.8 131 40.22 131 40.85V42.95C131 42.9894 130.998 43.028 130.995 43.0657C130.986 43.1725 130.965 43.2723 130.931 43.364C130.789 43.7573 130.437 44.0001 129.964 44.0001Z"/>
</mask>
<path fill-rule="evenodd" clip-rule="evenodd" d="M129.964 44.0001H107.179C106.557 44.0001 106.143 43.5801 106.143 42.95V40.85C106.143 40.2201 106.557 39.8 107.179 39.8H129.964C130.586 39.8 131 40.22 131 40.85V42.95C131 42.9894 130.998 43.028 130.995 43.0657C130.986 43.1725 130.965 43.2723 130.931 43.364C130.789 43.7573 130.437 44.0001 129.964 44.0001Z" fill="#E2E5E8"/>
<path d="M106.143 42.95H106.518L106.518 42.9501L106.143 42.95ZM130.995 43.0657L131.369 43.0973L131.369 43.0973L130.995 43.0657ZM130.931 43.364L130.579 43.2367L130.579 43.2367L130.931 43.364ZM107.179 43.6251H108.128V44.3751H107.179V43.6251ZM109.077 43.6251H110.976V44.3751H109.077V43.6251ZM111.926 43.6251H113.824V44.3751H111.926V43.6251ZM114.774 43.6251H116.673V44.3751H114.774V43.6251ZM117.622 43.6251H119.521V44.3751H117.622V43.6251ZM120.47 43.6251H122.369V44.3751H120.47V43.6251ZM123.318 43.6251H125.217V44.3751H123.318V43.6251ZM126.167 43.6251H128.066V44.3751H126.167V43.6251ZM129.015 43.6251H129.964V44.3751H129.015V43.6251ZM129.964 43.6251C130.072 43.6251 130.164 43.6079 130.24 43.5798L130.499 44.2838C130.332 44.3449 130.152 44.3751 129.964 44.3751V43.6251ZM130.448 43.4482C130.503 43.3929 130.548 43.3228 130.579 43.2367L131.284 43.4913C131.218 43.6748 131.116 43.8391 130.982 43.9752L130.448 43.4482ZM130.579 43.2367C130.586 43.2164 130.593 43.1951 130.598 43.1729L131.325 43.3603C131.313 43.4048 131.3 43.4485 131.284 43.4913L130.579 43.2367ZM130.613 43.1051C130.616 43.0824 130.619 43.0587 130.622 43.0341L131.369 43.0973C131.365 43.1416 131.36 43.1854 131.352 43.2285L130.613 43.1051ZM130.622 43.0341C130.622 43.025 130.623 43.0158 130.623 43.0064L131.372 43.0479C131.371 43.0644 131.37 43.0809 131.369 43.0973L130.622 43.0341ZM130.625 42.9784C130.625 42.9691 130.625 42.9596 130.625 42.95H131.375C131.375 42.9664 131.375 42.9826 131.374 42.9988L130.625 42.9784ZM130.625 42.95V42.25H131.375V42.95H130.625ZM130.625 41.55V40.85H131.375V41.55H130.625ZM130.625 40.85C130.625 40.7007 130.594 40.5803 130.546 40.4874L131.212 40.1432C131.321 40.3543 131.375 40.5949 131.375 40.85H130.625ZM130.319 40.256C130.229 40.2071 130.111 40.175 129.964 40.175V39.425C130.222 39.425 130.464 39.4818 130.676 39.5959L130.319 40.256ZM129.964 40.175H129.015V39.425H129.964V40.175ZM128.066 40.175H126.167V39.425H128.066V40.175ZM125.217 40.175H123.318V39.425H125.217V40.175ZM122.369 40.175H120.47V39.425H122.369V40.175ZM119.521 40.175H117.622V39.425H119.521V40.175ZM116.673 40.175H114.774V39.425H116.673V40.175ZM113.824 40.175H111.926V39.425H113.824V40.175ZM110.976 40.175H109.077V39.425H110.976V40.175ZM108.128 40.175H107.179V39.425H108.128V40.175ZM107.179 40.175C107.032 40.175 106.914 40.2071 106.823 40.256L106.467 39.5959C106.679 39.4818 106.921 39.425 107.179 39.425V40.175ZM106.597 40.4874C106.549 40.5803 106.518 40.7007 106.518 40.85H105.768C105.768 40.5949 105.822 40.3543 105.931 40.1432L106.597 40.4874ZM106.518 40.85V41.55H105.768V40.85H106.518ZM106.518 42.25V42.95H105.768V42.25H106.518ZM106.518 42.9501C106.518 43.0994 106.549 43.2198 106.597 43.3127L105.931 43.6569C105.822 43.4458 105.768 43.2051 105.768 42.95L106.518 42.9501ZM106.823 43.5442C106.914 43.5931 107.032 43.6251 107.179 43.6251V44.3751C106.921 44.3751 106.679 44.3184 106.467 44.2042L106.823 43.5442ZM106.143 42.95H106.893L106.893 42.9502L106.143 42.95ZM130.995 43.0657L131.743 43.1288L131.743 43.1288L130.995 43.0657ZM130.931 43.364L130.226 43.1094L130.226 43.1094L130.931 43.364ZM107.179 43.2501H108.128V44.7501H107.179V43.2501ZM109.077 43.2501H110.976V44.7501H109.077V43.2501ZM111.926 43.2501H113.824V44.7501H111.926V43.2501ZM114.774 43.2501H116.673V44.7501H114.774V43.2501ZM117.622 43.2501H119.521V44.7501H117.622V43.2501ZM120.47 43.2501H122.369V44.7501H120.47V43.2501ZM123.318 43.2501H125.217V44.7501H123.318V43.2501ZM126.167 43.2501H128.066V44.7501H126.167V43.2501ZM129.015 43.2501H129.964V44.7501H129.015V43.2501ZM129.964 43.2501C130.031 43.2501 130.079 43.2394 130.111 43.2277L130.628 44.6358C130.417 44.7134 130.192 44.7501 129.964 44.7501V43.2501ZM130.181 43.1847C130.196 43.1698 130.212 43.1468 130.226 43.1094L131.637 43.6186C131.553 43.8509 131.423 44.0622 131.248 44.2387L130.181 43.1847ZM130.226 43.1094C130.229 43.1003 130.232 43.0903 130.235 43.0791L131.688 43.454C131.673 43.5097 131.656 43.5646 131.637 43.6186L130.226 43.1094ZM130.243 43.0435C130.245 43.0309 130.247 43.0172 130.248 43.0025L131.743 43.1288C131.738 43.183 131.731 43.2368 131.722 43.2902L130.243 43.0435ZM130.248 43.0025C130.248 42.997 130.249 42.9914 130.249 42.9857L131.747 43.0687C131.746 43.0888 131.744 43.1088 131.743 43.1288L130.248 43.0025ZM130.25 42.9682C130.25 42.9623 130.25 42.9562 130.25 42.95H131.75C131.75 42.9698 131.75 42.9894 131.749 43.0091L130.25 42.9682ZM130.25 42.95V42.25H131.75V42.95H130.25ZM130.25 41.55V40.85H131.75V41.55H130.25ZM130.25 40.85C130.25 40.7536 130.23 40.6933 130.212 40.6595L131.545 39.9712C131.685 40.2413 131.75 40.542 131.75 40.85H130.25ZM130.141 40.586C130.111 40.5697 130.056 40.55 129.964 40.55V39.05C130.277 39.05 130.582 39.1191 130.854 39.2659L130.141 40.586ZM129.964 40.55H129.015V39.05H129.964V40.55ZM128.066 40.55H126.167V39.05H128.066V40.55ZM125.217 40.55H123.318V39.05H125.217V40.55ZM122.369 40.55H120.47V39.05H122.369V40.55ZM119.521 40.55H117.622V39.05H119.521V40.55ZM116.673 40.55H114.774V39.05H116.673V40.55ZM113.824 40.55H111.926V39.05H113.824V40.55ZM110.976 40.55H109.077V39.05H110.976V40.55ZM108.128 40.55H107.179V39.05H108.128V40.55ZM107.179 40.55C107.087 40.55 107.032 40.5697 107.002 40.586L106.289 39.2659C106.561 39.1191 106.866 39.05 107.179 39.05V40.55ZM106.93 40.6595C106.913 40.6933 106.893 40.7536 106.893 40.85H105.393C105.393 40.542 105.458 40.2413 105.598 39.9712L106.93 40.6595ZM106.893 40.85V41.55H105.393V40.85H106.893ZM106.893 42.25V42.95H105.393V42.25H106.893ZM106.893 42.9502C106.893 43.0465 106.913 43.1068 106.93 43.1407L105.598 43.8289C105.458 43.5588 105.393 43.258 105.393 42.9499L106.893 42.9502ZM107.002 43.2141C107.032 43.2304 107.087 43.2501 107.179 43.2501V44.7501C106.866 44.7501 106.561 44.681 106.289 44.5342L107.002 43.2141Z" fill="#959DAB" mask="url(#path-3-inside-1)"/>
<mask id="path-5-inside-2" fill="white">
<path fill-rule="evenodd" clip-rule="evenodd" d="M129 39.7501C129 40.5001 128.583 41.0001 127.958 41.0001H105.042C104.417 41.0001 104 40.5002 104 39.7501V39.6668V38.0002V37.0001H104.376C104.55 36.8399 104.777 36.7502 105.042 36.7502H127.958C128.583 36.7502 129 37.2502 129 38.0002V39.6668V39.7501Z"/>
</mask>
<path fill-rule="evenodd" clip-rule="evenodd" d="M129 39.7501C129 40.5001 128.583 41.0001 127.958 41.0001H105.042C104.417 41.0001 104 40.5002 104 39.7501V39.6668V38.0002V37.0001H104.376C104.55 36.8399 104.777 36.7502 105.042 36.7502H127.958C128.583 36.7502 129 37.2502 129 38.0002V39.6668V39.7501Z" fill="#E2E5E8"/>
<path d="M104 37.0001H103.625V36.6251H104V37.0001ZM104.376 37.0001L104.63 37.276L104.522 37.3751H104.376V37.0001ZM127.958 40.6251C128.105 40.6251 128.223 40.5846 128.315 40.5193L128.749 41.1311C128.522 41.2918 128.251 41.3751 127.958 41.3751V40.6251ZM128.546 40.2085C128.595 40.0858 128.625 39.9325 128.625 39.7501H129.375C129.375 40.0141 129.331 40.2629 129.243 40.4849L128.546 40.2085ZM128.625 39.7501V39.7224H129.375V39.7501H128.625ZM128.625 39.6946V39.6668H129.375V39.6946H128.625ZM128.625 39.6668V39.1113H129.375V39.6668H128.625ZM128.625 38.5557V38.0002H129.375V38.5557H128.625ZM128.625 38.0002C128.625 37.8178 128.595 37.6645 128.546 37.5418L129.243 37.2655C129.331 37.4874 129.375 37.7362 129.375 38.0002H128.625ZM128.315 37.231C128.223 37.1658 128.105 37.1252 127.958 37.1252V36.3752C128.251 36.3752 128.522 36.4586 128.749 36.6193L128.315 37.231ZM127.958 37.1252H127.003V36.3752H127.958V37.1252ZM126.049 37.1252H124.139V36.3752H126.049V37.1252ZM123.184 37.1252H121.274V36.3752H123.184V37.1252ZM120.319 37.1252H118.41V36.3752H120.319V37.1252ZM117.455 37.1252H115.545V36.3752H117.455V37.1252ZM114.59 37.1252H112.681V36.3752H114.59V37.1252ZM111.726 37.1252H109.816V36.3752H111.726V37.1252ZM108.861 37.1252H106.951V36.3752H108.861V37.1252ZM105.997 37.1252H105.042V36.3752H105.997V37.1252ZM105.042 37.1252C104.984 37.1252 104.932 37.1314 104.885 37.1423L104.717 36.4115C104.822 36.3873 104.93 36.3752 105.042 36.3752V37.1252ZM104.748 37.1927C104.705 37.2149 104.666 37.2427 104.63 37.276L104.122 36.7242C104.205 36.6473 104.298 36.5815 104.4 36.5284L104.748 37.1927ZM104.376 37.3751H104.25V36.6251H104.376V37.3751ZM104.125 37.3751H104V36.6251H104.125V37.3751ZM104.375 37.0001V37.3335H103.625V37.0001H104.375ZM104.375 37.6668V38.0002H103.625V37.6668H104.375ZM104.375 38.0002V38.5557H103.625V38.0002H104.375ZM104.375 39.1113V39.6668H103.625V39.1113H104.375ZM104.375 39.6668V39.6946H103.625V39.6668H104.375ZM104.375 39.7224V39.7501H103.625V39.7224H104.375ZM104.375 39.7501C104.375 39.9325 104.405 40.0859 104.454 40.2085L103.757 40.4849C103.669 40.2629 103.625 40.0141 103.625 39.7501H104.375ZM104.685 40.5193C104.777 40.5846 104.895 40.6251 105.042 40.6251V41.3751C104.749 41.3751 104.478 41.2918 104.251 41.1311L104.685 40.5193ZM105.042 40.6251H105.997V41.3751H105.042V40.6251ZM106.951 40.6251H108.861V41.3751H106.951V40.6251ZM109.816 40.6251H111.726V41.3751H109.816V40.6251ZM112.681 40.6251H114.59V41.3751H112.681V40.6251ZM115.545 40.6251H117.455V41.3751H115.545V40.6251ZM118.41 40.6251H120.319V41.3751H118.41V40.6251ZM121.274 40.6251H123.184V41.3751H121.274V40.6251ZM124.139 40.6251H126.049V41.3751H124.139V40.6251ZM127.003 40.6251H127.958V41.3751H127.003V40.6251ZM104 37.0001H103.25V36.2501H104V37.0001ZM104.376 37.0001L104.884 37.5519L104.668 37.7501H104.376V37.0001ZM127.958 40.2501C128.033 40.2501 128.073 40.231 128.098 40.2135L128.966 41.437C128.672 41.6453 128.324 41.7501 127.958 41.7501V40.2501ZM128.198 40.0703C128.227 39.9973 128.25 39.8917 128.25 39.7501H129.75C129.75 40.0549 129.7 40.3514 129.592 40.6231L128.198 40.0703ZM128.25 39.7501V39.7224H129.75V39.7501H128.25ZM128.25 39.6946V39.6668H129.75V39.6946H128.25ZM128.25 39.6668V39.1113H129.75V39.6668H128.25ZM128.25 38.5557V38.0002H129.75V38.5557H128.25ZM128.25 38.0002C128.25 37.8586 128.227 37.753 128.198 37.68L129.592 37.1273C129.7 37.3989 129.75 37.6954 129.75 38.0002H128.25ZM128.098 37.5369C128.073 37.5194 128.033 37.5002 127.958 37.5002V36.0002C128.324 36.0002 128.672 36.105 128.966 36.3134L128.098 37.5369ZM127.958 37.5002H127.003V36.0002H127.958V37.5002ZM126.049 37.5002H124.139V36.0002H126.049V37.5002ZM123.184 37.5002H121.274V36.0002H123.184V37.5002ZM120.319 37.5002H118.41V36.0002H120.319V37.5002ZM117.455 37.5002H115.545V36.0002H117.455V37.5002ZM114.59 37.5002H112.681V36.0002H114.59V37.5002ZM111.726 37.5002H109.816V36.0002H111.726V37.5002ZM108.861 37.5002H106.951V36.0002H108.861V37.5002ZM105.997 37.5002H105.042V36.0002H105.997V37.5002ZM105.042 37.5002C105.012 37.5002 104.988 37.5035 104.969 37.5077L104.632 36.046C104.766 36.0152 104.903 36.0002 105.042 36.0002V37.5002ZM104.922 37.5249C104.909 37.5317 104.896 37.5404 104.884 37.5519L103.868 36.4483C103.975 36.3496 104.095 36.2648 104.225 36.1963L104.922 37.5249ZM104.376 37.7501H104.25V36.2501H104.376V37.7501ZM104.125 37.7501H104V36.2501H104.125V37.7501ZM104.75 37.0001V37.3335H103.25V37.0001H104.75ZM104.75 37.6668V38.0002H103.25V37.6668H104.75ZM104.75 38.0002V38.5557H103.25V38.0002H104.75ZM104.75 39.1113V39.6668H103.25V39.1113H104.75ZM104.75 39.6668V39.6946H103.25V39.6668H104.75ZM104.75 39.7224V39.7501H103.25V39.7224H104.75ZM104.75 39.7501C104.75 39.8917 104.773 39.9973 104.802 40.0703L103.408 40.6231C103.3 40.3514 103.25 40.0549 103.25 39.7501H104.75ZM104.902 40.2135C104.927 40.231 104.967 40.2501 105.042 40.2501V41.7501C104.676 41.7501 104.328 41.6454 104.034 41.437L104.902 40.2135ZM105.042 40.2501H105.997V41.7501H105.042V40.2501ZM106.951 40.2501H108.861V41.7501H106.951V40.2501ZM109.816 40.2501H111.726V41.7501H109.816V40.2501ZM112.681 40.2501H114.59V41.7501H112.681V40.2501ZM115.545 40.2501H117.455V41.7501H115.545V40.2501ZM118.41 40.2501H120.319V41.7501H118.41V40.2501ZM121.274 40.2501H123.184V41.7501H121.274V40.2501ZM124.139 40.2501H126.049V41.7501H124.139V40.2501ZM127.003 40.2501H127.958V41.7501H127.003V40.2501Z" fill="#959DAB" mask="url(#path-5-inside-2)"/>
<path d="M107.179 31.2499H126.857C126.857 30.6199 126.443 30.2 125.821 30.2H107.179V31.2499Z" fill="#FFCB5B"/>
<mask id="path-8-inside-3" fill="white">
<path fill-rule="evenodd" clip-rule="evenodd" d="M125.821 34.3999H103.036C102.414 34.3999 102 33.98 102 33.3499V31.2499C102 30.62 102.414 30.2 103.036 30.2H125.821C126.443 30.2 126.857 30.6199 126.857 31.2499V33.3499H126.857C126.857 33.7153 126.718 34.0101 126.479 34.1932C126.307 34.3258 126.082 34.3999 125.821 34.3999Z"/>
</mask>
<path fill-rule="evenodd" clip-rule="evenodd" d="M125.821 34.3999H103.036C102.414 34.3999 102 33.98 102 33.3499V31.2499C102 30.62 102.414 30.2 103.036 30.2H125.821C126.443 30.2 126.857 30.6199 126.857 31.2499V33.3499H126.857C126.857 33.7153 126.718 34.0101 126.479 34.1932C126.307 34.3258 126.082 34.3999 125.821 34.3999Z" fill="#E2E5E8"/>
<path d="M126.857 33.3499V33.7249H126.482V33.3499H126.857ZM126.857 33.3499V32.9749H127.232V33.3499H126.857ZM126.479 34.1932L126.251 33.8959L126.251 33.8958L126.479 34.1932ZM103.036 34.0249H103.985V34.7749H103.036V34.0249ZM104.934 34.0249H106.833V34.7749H104.934V34.0249ZM107.783 34.0249H109.681V34.7749H107.783V34.0249ZM110.631 34.0249H112.53V34.7749H110.631V34.0249ZM113.479 34.0249H115.378V34.7749H113.479V34.0249ZM116.327 34.0249H118.226V34.7749H116.327V34.0249ZM119.176 34.0249H121.074V34.7749H119.176V34.0249ZM122.024 34.0249H123.923V34.7749H122.024V34.0249ZM124.872 34.0249H125.821V34.7749H124.872V34.0249ZM125.821 34.0249C125.881 34.0249 125.935 34.0197 125.985 34.0103L126.124 34.7473C126.026 34.7658 125.925 34.7749 125.821 34.7749V34.0249ZM126.129 33.9667C126.175 33.9472 126.215 33.9233 126.251 33.8959L126.708 34.4906C126.622 34.5568 126.527 34.612 126.426 34.6555L126.129 33.9667ZM126.251 33.8958C126.3 33.858 126.342 33.8119 126.377 33.7575L127.01 34.1596C126.929 34.2872 126.827 34.3988 126.708 34.4906L126.251 33.8958ZM126.456 33.5725C126.472 33.5072 126.482 33.433 126.482 33.3499H127.232C127.232 33.4917 127.216 33.6291 127.182 33.7597L126.456 33.5725ZM126.857 33.7249H126.857V32.9749H126.857V33.7249ZM126.857 33.7249H126.857V32.9749H126.857V33.7249ZM126.482 33.3499V32.6499H127.232V33.3499H126.482ZM126.482 31.9499V31.2499H127.232V31.9499H126.482ZM126.482 31.2499C126.482 31.1006 126.451 30.9802 126.403 30.8873L127.069 30.5431C127.178 30.7542 127.232 30.9948 127.232 31.2499H126.482ZM126.176 30.6559C126.086 30.607 125.968 30.575 125.821 30.575V29.825C126.079 29.825 126.321 29.8817 126.533 29.9958L126.176 30.6559ZM125.821 30.575H124.872V29.825H125.821V30.575ZM123.923 30.575H122.024V29.825H123.923V30.575ZM121.074 30.575H119.176V29.825H121.074V30.575ZM118.226 30.575H116.327V29.825H118.226V30.575ZM115.378 30.575H113.479V29.825H115.378V30.575ZM112.53 30.575H110.631V29.825H112.53V30.575ZM109.681 30.575H107.783V29.825H109.681V30.575ZM106.833 30.575H104.934V29.825H106.833V30.575ZM103.985 30.575H103.036V29.825H103.985V30.575ZM103.036 30.575C102.889 30.575 102.771 30.607 102.681 30.6559L102.324 29.9958C102.536 29.8817 102.778 29.825 103.036 29.825V30.575ZM102.454 30.8873C102.406 30.9802 102.375 31.1006 102.375 31.2499H101.625C101.625 30.9948 101.679 30.7542 101.788 30.5431L102.454 30.8873ZM102.375 31.2499V31.9499H101.625V31.2499H102.375ZM102.375 32.6499V33.3499H101.625V32.6499H102.375ZM102.375 33.3499C102.375 33.4992 102.406 33.6197 102.454 33.7126L101.788 34.0567C101.679 33.8457 101.625 33.605 101.625 33.3499H102.375ZM102.681 33.944C102.771 33.9929 102.889 34.0249 103.036 34.0249V34.7749C102.778 34.7749 102.536 34.7182 102.324 34.604L102.681 33.944ZM126.857 33.3499V34.0999H126.107V33.3499H126.857ZM126.857 33.3499V32.5999H127.607V33.3499H126.857ZM126.479 34.1932L126.022 33.5985L126.022 33.5985L126.479 34.1932ZM103.036 33.6499H103.985V35.1499H103.036V33.6499ZM104.934 33.6499H106.833V35.1499H104.934V33.6499ZM107.783 33.6499H109.681V35.1499H107.783V33.6499ZM110.631 33.6499H112.53V35.1499H110.631V33.6499ZM113.479 33.6499H115.378V35.1499H113.479V33.6499ZM116.327 33.6499H118.226V35.1499H116.327V33.6499ZM119.176 33.6499H121.074V35.1499H119.176V33.6499ZM122.024 33.6499H123.923V35.1499H122.024V33.6499ZM124.872 33.6499H125.821V35.1499H124.872V33.6499ZM125.821 33.6499C125.858 33.6499 125.89 33.6466 125.915 33.6418L126.193 35.1158C126.071 35.1388 125.947 35.1499 125.821 35.1499V33.6499ZM125.981 33.6224C125.998 33.6148 126.012 33.6066 126.022 33.5985L126.936 34.7879C126.825 34.8735 126.704 34.9444 126.575 34.9999L125.981 33.6224ZM126.022 33.5985C126.037 33.5876 126.049 33.5742 126.06 33.5565L127.327 34.3606C127.222 34.5249 127.091 34.6692 126.936 34.788L126.022 33.5985ZM126.092 33.4788C126.101 33.4463 126.107 33.4036 126.107 33.3499H127.607C127.607 33.5211 127.587 33.6901 127.545 33.8534L126.092 33.4788ZM126.857 34.0999H126.857V32.5999H126.857V34.0999ZM126.857 34.0999H126.857V32.5999H126.857V34.0999ZM126.107 33.3499V32.6499H127.607V33.3499H126.107ZM126.107 31.9499V31.2499H127.607V31.9499H126.107ZM126.107 31.2499C126.107 31.1535 126.087 31.0932 126.07 31.0594L127.402 30.3711C127.542 30.6412 127.607 30.9419 127.607 31.2499H126.107ZM125.998 30.9859C125.968 30.9696 125.913 30.95 125.821 30.95V29.45C126.134 29.45 126.439 29.519 126.711 29.6658L125.998 30.9859ZM125.821 30.95H124.872V29.45H125.821V30.95ZM123.923 30.95H122.024V29.45H123.923V30.95ZM121.074 30.95H119.176V29.45H121.074V30.95ZM118.226 30.95H116.327V29.45H118.226V30.95ZM115.378 30.95H113.479V29.45H115.378V30.95ZM112.53 30.95H110.631V29.45H112.53V30.95ZM109.681 30.95H107.783V29.45H109.681V30.95ZM106.833 30.95H104.934V29.45H106.833V30.95ZM103.985 30.95H103.036V29.45H103.985V30.95ZM103.036 30.95C102.944 30.95 102.889 30.9696 102.859 30.9859L102.146 29.6658C102.418 29.519 102.723 29.45 103.036 29.45V30.95ZM102.788 31.0594C102.77 31.0932 102.75 31.1535 102.75 31.2499H101.25C101.25 30.9419 101.315 30.6412 101.455 30.3711L102.788 31.0594ZM102.75 31.2499V31.9499H101.25V31.2499H102.75ZM102.75 32.6499V33.3499H101.25V32.6499H102.75ZM102.75 33.3499C102.75 33.4464 102.77 33.5067 102.788 33.5405L101.455 34.2288C101.315 33.9587 101.25 33.6579 101.25 33.3499H102.75ZM102.859 33.614C102.889 33.6302 102.944 33.6499 103.036 33.6499V35.1499C102.723 35.1499 102.418 35.0809 102.146 34.9341L102.859 33.614Z" fill="#959DAB" mask="url(#path-8-inside-3)"/>
<mask id="path-10-inside-4" fill="white">
<path fill-rule="evenodd" clip-rule="evenodd" d="M127.893 31.2H105.107C104.614 31.2 104.251 30.9349 104.122 30.51C104.043 30.3651 104 30.1929 104 30V28H104.072C104.094 27.3979 104.502 27 105.107 27H127.893C128.514 27 128.929 27.42 128.929 28.05V30H129C129 30.1926 128.957 30.3645 128.878 30.5092C128.75 30.9345 128.387 31.2 127.893 31.2Z"/>
</mask>
<path fill-rule="evenodd" clip-rule="evenodd" d="M127.893 31.2H105.107C104.614 31.2 104.251 30.9349 104.122 30.51C104.043 30.3651 104 30.1929 104 30V28H104.072C104.094 27.3979 104.502 27 105.107 27H127.893C128.514 27 128.929 27.42 128.929 28.05V30H129C129 30.1926 128.957 30.3645 128.878 30.5092C128.75 30.9345 128.387 31.2 127.893 31.2Z" fill="#E2E5E8"/>
<path d="M104.122 30.51L104.451 30.3302L104.47 30.3643L104.481 30.4016L104.122 30.51ZM104 28H103.625V27.625H104V28ZM104.072 28L104.447 28.0133L104.434 28.375H104.072V28ZM128.929 30V30.375H128.554V30H128.929ZM129 30V29.625H129.375V30H129ZM128.878 30.5092L128.519 30.401L128.53 30.3638L128.549 30.3297L128.878 30.5092ZM105.107 30.825H106.057V31.575H105.107V30.825ZM107.006 30.825H108.905V31.575H107.006V30.825ZM109.854 30.825H111.753V31.575H109.854V30.825ZM112.702 30.825H114.601V31.575H112.702V30.825ZM115.551 30.825H117.45V31.575H115.551V30.825ZM118.399 30.825H120.298V31.575H118.399V30.825ZM121.247 30.825H123.146V31.575H121.247V30.825ZM124.095 30.825H125.994V31.575H124.095V30.825ZM126.944 30.825H127.893V31.575H126.944V30.825ZM127.893 30.825C128.006 30.825 128.101 30.806 128.18 30.7754L128.452 31.4744C128.279 31.5417 128.09 31.575 127.893 31.575V30.825ZM128.392 30.6318C128.446 30.5718 128.491 30.4954 128.519 30.401L129.237 30.6174C129.178 30.8125 129.081 30.9885 128.948 31.1357L128.392 30.6318ZM128.549 30.3297C128.565 30.2999 128.579 30.2672 128.591 30.2317L129.304 30.463C129.279 30.5417 129.246 30.6171 129.207 30.6887L128.549 30.3297ZM128.616 30.1211C128.622 30.0835 128.625 30.0432 128.625 30H129.375C129.375 30.0783 129.37 30.1553 129.358 30.2305L128.616 30.1211ZM129 30.375H128.976V29.625H129V30.375ZM128.952 30.375H128.929V29.625H128.952V30.375ZM128.554 30V29.35H129.304V30H128.554ZM128.554 28.7V28.05H129.304V28.7H128.554ZM128.554 28.05C128.554 27.9007 128.522 27.7802 128.474 27.6873L129.141 27.3432C129.25 27.5542 129.304 27.7949 129.304 28.05H128.554ZM128.248 27.4559C128.157 27.407 128.04 27.375 127.893 27.375V26.625C128.15 26.625 128.393 26.6817 128.604 26.7959L128.248 27.4559ZM127.893 27.375H126.944V26.625H127.893V27.375ZM125.994 27.375H124.095V26.625H125.994V27.375ZM123.146 27.375H121.247V26.625H123.146V27.375ZM120.298 27.375H118.399V26.625H120.298V27.375ZM117.45 27.375H115.551V26.625H117.45V27.375ZM114.601 27.375H112.702V26.625H114.601V27.375ZM111.753 27.375H109.854V26.625H111.753V27.375ZM108.905 27.375H107.006V26.625H108.905V27.375ZM106.057 27.375H105.107V26.625H106.057V27.375ZM105.107 27.375C104.965 27.375 104.85 27.405 104.761 27.4512L104.416 26.7851C104.623 26.6781 104.858 26.625 105.107 26.625V27.375ZM104.536 27.6694C104.486 27.7574 104.452 27.8715 104.447 28.0133L103.698 27.9867C103.706 27.7386 103.768 27.5056 103.881 27.3025L104.536 27.6694ZM104.072 28.375H104.048V27.625H104.072V28.375ZM104.024 28.375H104V27.625H104.024V28.375ZM104.375 28V28.6667H103.625V28H104.375ZM104.375 29.3334V30H103.625V29.3334H104.375ZM104.375 30C104.375 30.0432 104.378 30.0837 104.384 30.1213L103.642 30.2309C103.631 30.1555 103.625 30.0784 103.625 30H104.375ZM104.409 30.2321C104.421 30.2677 104.435 30.3003 104.451 30.3302L103.793 30.6899C103.754 30.6182 103.722 30.5426 103.696 30.4638L104.409 30.2321ZM104.481 30.4016C104.51 30.4958 104.554 30.5721 104.608 30.632L104.053 31.1362C103.92 30.9893 103.822 30.8134 103.763 30.6185L104.481 30.4016ZM104.82 30.7754C104.899 30.806 104.995 30.825 105.107 30.825V31.575C104.91 31.575 104.722 31.5417 104.549 31.4745L104.82 30.7754ZM104.122 30.51L104.78 30.1503L104.818 30.2186L104.84 30.2931L104.122 30.51ZM104 28H103.25V27.25H104V28ZM104.072 28L104.822 28.0266L104.796 28.75H104.072V28ZM128.929 30V30.75H128.179V30H128.929ZM129 30V29.25H129.75V30H129ZM128.878 30.5092L128.16 30.2929L128.182 30.2184L128.22 30.1502L128.878 30.5092ZM105.107 30.45H106.057V31.95H105.107V30.45ZM107.006 30.45H108.905V31.95H107.006V30.45ZM109.854 30.45H111.753V31.95H109.854V30.45ZM112.702 30.45H114.601V31.95H112.702V30.45ZM115.551 30.45H117.45V31.95H115.551V30.45ZM118.399 30.45H120.298V31.95H118.399V30.45ZM121.247 30.45H123.146V31.95H121.247V30.45ZM124.095 30.45H125.994V31.95H124.095V30.45ZM126.944 30.45H127.893V31.95H126.944V30.45ZM127.893 30.45C127.963 30.45 128.012 30.4382 128.044 30.4258L128.588 31.8239C128.368 31.9095 128.132 31.95 127.893 31.95V30.45ZM128.114 30.3798C128.129 30.3634 128.147 30.3369 128.16 30.2929L129.596 30.7255C129.522 30.971 129.398 31.1969 129.225 31.3876L128.114 30.3798ZM128.22 30.1502C128.225 30.1412 128.23 30.13 128.234 30.1161L129.661 30.5787C129.629 30.6789 129.587 30.7758 129.537 30.8683L128.22 30.1502ZM128.245 30.0664C128.248 30.0476 128.25 30.0256 128.25 30H129.75C129.75 30.0959 129.743 30.1911 129.729 30.2852L128.245 30.0664ZM129 30.75H128.976V29.25H129V30.75ZM128.952 30.75H128.929V29.25H128.952V30.75ZM128.179 30V29.35H129.679V30H128.179ZM128.179 28.7V28.05H129.679V28.7H128.179ZM128.179 28.05C128.179 27.9536 128.159 27.8933 128.141 27.8594L129.474 27.1711C129.613 27.4412 129.679 27.742 129.679 28.05H128.179ZM128.07 27.7859C128.04 27.7697 127.984 27.75 127.893 27.75V26.25C128.205 26.25 128.51 26.3191 128.782 26.4659L128.07 27.7859ZM127.893 27.75H126.944V26.25H127.893V27.75ZM125.994 27.75H124.095V26.25H125.994V27.75ZM123.146 27.75H121.247V26.25H123.146V27.75ZM120.298 27.75H118.399V26.25H120.298V27.75ZM117.45 27.75H115.551V26.25H117.45V27.75ZM114.601 27.75H112.702V26.25H114.601V27.75ZM111.753 27.75H109.854V26.25H111.753V27.75ZM108.905 27.75H107.006V26.25H108.905V27.75ZM106.057 27.75H105.107V26.25H106.057V27.75ZM105.107 27.75C105.019 27.75 104.964 27.7685 104.933 27.7843L104.244 26.452C104.51 26.3146 104.805 26.25 105.107 26.25V27.75ZM104.863 27.8528C104.846 27.8833 104.825 27.938 104.822 28.0266L103.323 27.9734C103.334 27.6721 103.408 27.3797 103.554 27.1191L104.863 27.8528ZM104.072 28.75H104.048V27.25H104.072V28.75ZM104.024 28.75H104V27.25H104.024V28.75ZM104.75 28V28.6667H103.25V28H104.75ZM104.75 29.3334V30H103.25V29.3334H104.75ZM104.75 30C104.75 30.0256 104.752 30.0477 104.755 30.0665L103.271 30.2857C103.257 30.1915 103.25 30.096 103.25 30H104.75ZM104.766 30.1162C104.77 30.1302 104.775 30.1414 104.78 30.1503L103.464 30.8697C103.414 30.7771 103.372 30.6801 103.339 30.5797L104.766 30.1162ZM104.84 30.2931C104.853 30.3371 104.871 30.3635 104.886 30.3799L103.776 31.3884C103.603 31.1979 103.478 30.9721 103.404 30.7269L104.84 30.2931ZM104.956 30.4259C104.988 30.4382 105.037 30.45 105.107 30.45V31.95C104.868 31.95 104.633 31.9096 104.413 31.8241L104.956 30.4259Z" fill="#959DAB" mask="url(#path-10-inside-4)"/>
<path d="M111.321 35.4499H131C131 34.8199 130.586 34.3999 129.964 34.3999H111.321V35.4499Z" fill="#FFCB5B"/>
<mask id="path-13-inside-5" fill="white">
<path fill-rule="evenodd" clip-rule="evenodd" d="M129.964 37.6H107.179C106.557 37.6 106.143 37.1799 106.143 36.5499V34.4499C106.143 33.8199 106.557 33.3999 107.179 33.3999H129.964C130.586 33.3999 131 33.8199 131 34.4499V36.5499V36.5499C131 37.1799 130.586 37.6 129.964 37.6Z"/>
</mask>
<path fill-rule="evenodd" clip-rule="evenodd" d="M129.964 37.6H107.179C106.557 37.6 106.143 37.1799 106.143 36.5499V34.4499C106.143 33.8199 106.557 33.3999 107.179 33.3999H129.964C130.586 33.3999 131 33.8199 131 34.4499V36.5499V36.5499C131 37.1799 130.586 37.6 129.964 37.6Z" fill="#E2E5E8"/>
<path d="M106.143 36.5499H106.518V36.55L106.143 36.5499ZM107.179 37.225H108.128V37.975H107.179V37.225ZM109.077 37.225H110.976V37.975H109.077V37.225ZM111.926 37.225H113.824V37.975H111.926V37.225ZM114.774 37.225H116.673V37.975H114.774V37.225ZM117.622 37.225H119.521V37.975H117.622V37.225ZM120.47 37.225H122.369V37.975H120.47V37.225ZM123.318 37.225H125.217V37.975H123.318V37.225ZM126.167 37.225H128.066V37.975H126.167V37.225ZM129.015 37.225H129.964V37.975H129.015V37.225ZM129.964 37.225C130.111 37.225 130.229 37.1929 130.319 37.144L130.676 37.804C130.464 37.9182 130.222 37.975 129.964 37.975V37.225ZM130.546 36.9126C130.594 36.8196 130.625 36.6992 130.625 36.5499H131.375C131.375 36.805 131.321 37.0456 131.212 37.2567L130.546 36.9126ZM130.625 36.5499V36.5499H131.375V36.5499H130.625ZM130.625 36.5499V36.5499H131.375V36.5499H130.625ZM130.625 36.5499V35.8499H131.375V36.5499H130.625ZM130.625 35.1499V34.4499H131.375V35.1499H130.625ZM130.625 34.4499C130.625 34.3006 130.594 34.1802 130.546 34.0872L131.212 33.7431C131.321 33.9541 131.375 34.1948 131.375 34.4499H130.625ZM130.319 33.8558C130.229 33.8069 130.111 33.7749 129.964 33.7749V33.0249C130.222 33.0249 130.464 33.0816 130.676 33.1958L130.319 33.8558ZM129.964 33.7749H129.015V33.0249H129.964V33.7749ZM128.066 33.7749H126.167V33.0249H128.066V33.7749ZM125.217 33.7749H123.318V33.0249H125.217V33.7749ZM122.369 33.7749H120.47V33.0249H122.369V33.7749ZM119.521 33.7749H117.622V33.0249H119.521V33.7749ZM116.673 33.7749H114.774V33.0249H116.673V33.7749ZM113.824 33.7749H111.926V33.0249H113.824V33.7749ZM110.976 33.7749H109.077V33.0249H110.976V33.7749ZM108.128 33.7749H107.179V33.0249H108.128V33.7749ZM107.179 33.7749C107.032 33.7749 106.914 33.8069 106.823 33.8558L106.467 33.1958C106.679 33.0816 106.921 33.0249 107.179 33.0249V33.7749ZM106.597 34.0872C106.549 34.1802 106.518 34.3006 106.518 34.4499H105.768C105.768 34.1948 105.822 33.9541 105.931 33.7431L106.597 34.0872ZM106.518 34.4499V35.1499H105.768V34.4499H106.518ZM106.518 35.8499V36.5499H105.768V35.8499H106.518ZM106.518 36.55C106.518 36.6992 106.549 36.8197 106.597 36.9126L105.931 37.2567C105.822 37.0456 105.768 36.8049 105.768 36.5498L106.518 36.55ZM106.823 37.144C106.914 37.1929 107.032 37.225 107.179 37.225V37.975C106.921 37.975 106.679 37.9182 106.467 37.8041L106.823 37.144ZM106.143 36.5499H106.893V36.55L106.143 36.5499ZM107.179 36.85H108.128V38.35H107.179V36.85ZM109.077 36.85H110.976V38.35H109.077V36.85ZM111.926 36.85H113.824V38.35H111.926V36.85ZM114.774 36.85H116.673V38.35H114.774V36.85ZM117.622 36.85H119.521V38.35H117.622V36.85ZM120.47 36.85H122.369V38.35H120.47V36.85ZM123.318 36.85H125.217V38.35H123.318V36.85ZM126.167 36.85H128.066V38.35H126.167V36.85ZM129.015 36.85H129.964V38.35H129.015V36.85ZM129.964 36.85C130.056 36.85 130.111 36.8303 130.141 36.814L130.854 38.134C130.582 38.2809 130.277 38.35 129.964 38.35V36.85ZM130.212 36.7405C130.23 36.7066 130.25 36.6463 130.25 36.5499H131.75C131.75 36.8579 131.685 37.1586 131.545 37.4288L130.212 36.7405ZM130.25 36.5499V36.5499H131.75V36.5499H130.25ZM130.25 36.5499V36.5499H131.75V36.5499H130.25ZM130.25 36.5499V35.8499H131.75V36.5499H130.25ZM130.25 35.1499V34.4499H131.75V35.1499H130.25ZM130.25 34.4499C130.25 34.3535 130.23 34.2932 130.212 34.2593L131.545 33.571C131.685 33.8411 131.75 34.1419 131.75 34.4499H130.25ZM130.141 34.1859C130.111 34.1696 130.056 34.1499 129.964 34.1499V32.6499C130.277 32.6499 130.582 32.719 130.854 32.8658L130.141 34.1859ZM129.964 34.1499H129.015V32.6499H129.964V34.1499ZM128.066 34.1499H126.167V32.6499H128.066V34.1499ZM125.217 34.1499H123.318V32.6499H125.217V34.1499ZM122.369 34.1499H120.47V32.6499H122.369V34.1499ZM119.521 34.1499H117.622V32.6499H119.521V34.1499ZM116.673 34.1499H114.774V32.6499H116.673V34.1499ZM113.824 34.1499H111.926V32.6499H113.824V34.1499ZM110.976 34.1499H109.077V32.6499H110.976V34.1499ZM108.128 34.1499H107.179V32.6499H108.128V34.1499ZM107.179 34.1499C107.087 34.1499 107.032 34.1696 107.002 34.1858L106.289 32.8658C106.561 32.719 106.866 32.6499 107.179 32.6499V34.1499ZM106.93 34.2593C106.913 34.2932 106.893 34.3535 106.893 34.4499H105.393C105.393 34.1419 105.458 33.8411 105.598 33.571L106.93 34.2593ZM106.893 34.4499V35.1499H105.393V34.4499H106.893ZM106.893 35.8499V36.5499H105.393V35.8499H106.893ZM106.893 36.55C106.893 36.6464 106.913 36.7067 106.93 36.7405L105.598 37.4288C105.458 37.1586 105.393 36.8578 105.393 36.5498L106.893 36.55ZM107.002 36.814C107.032 36.8303 107.087 36.85 107.179 36.85V38.35C106.866 38.35 106.561 38.2809 106.289 38.1341L107.002 36.814Z" fill="#959DAB" mask="url(#path-13-inside-5)"/>
<mask id="path-15-inside-6" fill="white">
<path fill-rule="evenodd" clip-rule="evenodd" d="M103.036 27.9999H125.821C126.443 27.9999 126.857 27.5798 126.857 26.9498V24.8498C126.857 24.2198 126.443 23.7998 125.821 23.7998H103.036C102.414 23.7998 102 24.2198 102 24.8498V26.9498C102 26.9892 102.002 27.0277 102.005 27.0654C102.014 27.1723 102.035 27.2721 102.069 27.3637C102.211 27.757 102.563 27.9999 103.036 27.9999Z"/>
</mask>
<path fill-rule="evenodd" clip-rule="evenodd" d="M103.036 27.9999H125.821C126.443 27.9999 126.857 27.5798 126.857 26.9498V24.8498C126.857 24.2198 126.443 23.7998 125.821 23.7998H103.036C102.414 23.7998 102 24.2198 102 24.8498V26.9498C102 26.9892 102.002 27.0277 102.005 27.0654C102.014 27.1723 102.035 27.2721 102.069 27.3637C102.211 27.757 102.563 27.9999 103.036 27.9999Z" fill="#E2E5E8"/>
<path d="M126.857 26.9498H126.482L126.482 26.9499L126.857 26.9498ZM102.005 27.0654L101.631 27.097L101.631 27.097L102.005 27.0654ZM102.069 27.3637L102.421 27.2364L102.421 27.2364L102.069 27.3637ZM125.821 27.6249H124.872V28.3749H125.821V27.6249ZM123.923 27.6249H122.024V28.3749H123.923V27.6249ZM121.074 27.6249H119.176V28.3749H121.074V27.6249ZM118.226 27.6249H116.327V28.3749H118.226V27.6249ZM115.378 27.6249H113.479V28.3749H115.378V27.6249ZM112.53 27.6249H110.631V28.3749H112.53V27.6249ZM109.682 27.6249H107.783V28.3749H109.682V27.6249ZM106.833 27.6249H104.934V28.3749H106.833V27.6249ZM103.985 27.6249H103.036V28.3749H103.985V27.6249ZM103.036 27.6249C102.928 27.6249 102.836 27.6076 102.76 27.5795L102.501 28.2836C102.668 28.3446 102.848 28.3749 103.036 28.3749V27.6249ZM102.552 27.448C102.497 27.3926 102.452 27.3225 102.421 27.2364L101.716 27.4911C101.782 27.6746 101.884 27.8388 102.018 27.9749L102.552 27.448ZM102.421 27.2364C102.414 27.2162 102.407 27.1949 102.402 27.1726L101.675 27.36C101.687 27.4046 101.7 27.4483 101.716 27.4911L102.421 27.2364ZM102.387 27.1049C102.384 27.0821 102.381 27.0584 102.378 27.0338L101.631 27.097C101.635 27.1413 101.64 27.1851 101.648 27.2283L102.387 27.1049ZM102.378 27.0338C102.378 27.0247 102.377 27.0155 102.377 27.0062L101.628 27.0477C101.629 27.0642 101.63 27.0806 101.631 27.097L102.378 27.0338ZM102.375 26.9782C102.375 26.9688 102.375 26.9594 102.375 26.9498H101.625C101.625 26.9661 101.625 26.9824 101.626 26.9986L102.375 26.9782ZM102.375 26.9498V26.2498H101.625V26.9498H102.375ZM102.375 25.5498V24.8498H101.625V25.5498H102.375ZM102.375 24.8498C102.375 24.7005 102.406 24.5801 102.454 24.4871L101.788 24.143C101.679 24.354 101.625 24.5947 101.625 24.8498H102.375ZM102.681 24.2557C102.771 24.2068 102.889 24.1748 103.036 24.1748V23.4248C102.778 23.4248 102.536 23.4815 102.324 23.5957L102.681 24.2557ZM103.036 24.1748H103.985V23.4248H103.036V24.1748ZM104.934 24.1748H106.833V23.4248H104.934V24.1748ZM107.783 24.1748H109.682V23.4248H107.783V24.1748ZM110.631 24.1748H112.53V23.4248H110.631V24.1748ZM113.479 24.1748H115.378V23.4248H113.479V24.1748ZM116.327 24.1748H118.226V23.4248H116.327V24.1748ZM119.176 24.1748H121.074V23.4248H119.176V24.1748ZM122.024 24.1748H123.923V23.4248H122.024V24.1748ZM124.872 24.1748H125.821V23.4248H124.872V24.1748ZM125.821 24.1748C125.968 24.1748 126.086 24.2068 126.177 24.2557L126.533 23.5957C126.321 23.4815 126.079 23.4248 125.821 23.4248V24.1748ZM126.403 24.4871C126.451 24.5801 126.482 24.7005 126.482 24.8498H127.232C127.232 24.5947 127.178 24.354 127.069 24.143L126.403 24.4871ZM126.482 24.8498V25.5498H127.232V24.8498H126.482ZM126.482 26.2498V26.9498H127.232V26.2498H126.482ZM126.482 26.9499C126.482 27.0991 126.451 27.2196 126.403 27.3125L127.069 27.6566C127.178 27.4455 127.232 27.2048 127.232 26.9497L126.482 26.9499ZM126.177 27.5439C126.086 27.5928 125.968 27.6249 125.821 27.6249V28.3749C126.079 28.3749 126.321 28.3181 126.533 28.204L126.177 27.5439ZM126.857 26.9498H126.107L126.107 26.9499L126.857 26.9498ZM102.005 27.0654L101.257 27.1286L101.257 27.1286L102.005 27.0654ZM102.069 27.3637L102.774 27.1091L102.774 27.1091L102.069 27.3637ZM125.821 27.2499H124.872V28.7499H125.821V27.2499ZM123.923 27.2499H122.024V28.7499H123.923V27.2499ZM121.074 27.2499H119.176V28.7499H121.074V27.2499ZM118.226 27.2499H116.327V28.7499H118.226V27.2499ZM115.378 27.2499H113.479V28.7499H115.378V27.2499ZM112.53 27.2499H110.631V28.7499H112.53V27.2499ZM109.682 27.2499H107.783V28.7499H109.682V27.2499ZM106.833 27.2499H104.934V28.7499H106.833V27.2499ZM103.985 27.2499H103.036V28.7499H103.985V27.2499ZM103.036 27.2499C102.969 27.2499 102.921 27.2392 102.889 27.2275L102.372 28.6356C102.583 28.7131 102.808 28.7499 103.036 28.7499V27.2499ZM102.819 27.1845C102.804 27.1695 102.788 27.1465 102.774 27.1091L101.363 27.6184C101.447 27.8506 101.577 28.0619 101.752 28.2384L102.819 27.1845ZM102.774 27.1091C102.771 27.1001 102.768 27.09 102.765 27.0789L101.312 27.4538C101.327 27.5094 101.344 27.5644 101.363 27.6184L102.774 27.1091ZM102.757 27.0432C102.755 27.0306 102.753 27.017 102.752 27.0022L101.257 27.1286C101.262 27.1828 101.269 27.2366 101.278 27.29L102.757 27.0432ZM102.752 27.0022C102.752 26.9968 102.751 26.9912 102.751 26.9854L101.253 27.0684C101.254 27.0885 101.256 27.1086 101.257 27.1286L102.752 27.0022ZM102.75 26.9679C102.75 26.962 102.75 26.956 102.75 26.9498H101.25C101.25 26.9695 101.25 26.9892 101.251 27.0088L102.75 26.9679ZM102.75 26.9498V26.2498H101.25V26.9498H102.75ZM102.75 25.5498V24.8498H101.25V25.5498H102.75ZM102.75 24.8498C102.75 24.7534 102.77 24.6931 102.788 24.6592L101.455 23.9709C101.315 24.241 101.25 24.5418 101.25 24.8498H102.75ZM102.859 24.5858C102.889 24.5695 102.944 24.5498 103.036 24.5498V23.0498C102.723 23.0498 102.418 23.1189 102.146 23.2657L102.859 24.5858ZM103.036 24.5498H103.985V23.0498H103.036V24.5498ZM104.934 24.5498H106.833V23.0498H104.934V24.5498ZM107.783 24.5498H109.682V23.0498H107.783V24.5498ZM110.631 24.5498H112.53V23.0498H110.631V24.5498ZM113.479 24.5498H115.378V23.0498H113.479V24.5498ZM116.327 24.5498H118.226V23.0498H116.327V24.5498ZM119.176 24.5498H121.074V23.0498H119.176V24.5498ZM122.024 24.5498H123.923V23.0498H122.024V24.5498ZM124.872 24.5498H125.821V23.0498H124.872V24.5498ZM125.821 24.5498C125.913 24.5498 125.968 24.5695 125.998 24.5858L126.711 23.2657C126.439 23.1189 126.134 23.0498 125.821 23.0498V24.5498ZM126.07 24.6592C126.087 24.6931 126.107 24.7534 126.107 24.8498H127.607C127.607 24.5418 127.542 24.241 127.402 23.9709L126.07 24.6592ZM126.107 24.8498V25.5498H127.607V24.8498H126.107ZM126.107 26.2498V26.9498H127.607V26.2498H126.107ZM126.107 26.9499C126.107 27.0463 126.087 27.1066 126.07 27.1404L127.402 27.8287C127.542 27.5585 127.607 27.2577 127.607 26.9497L126.107 26.9499ZM125.998 27.2139C125.968 27.2302 125.913 27.2499 125.821 27.2499V28.7499C126.134 28.7499 126.439 28.6808 126.711 28.534L125.998 27.2139Z" fill="#959DAB" mask="url(#path-15-inside-6)"/>
<mask id="path-17-inside-7" fill="white">
<path fill-rule="evenodd" clip-rule="evenodd" d="M105.042 25C104.417 25 104 24.6 104 24H104.016C104.006 23.9203 104 23.8368 104 23.75V21.25C104 20.4999 104.417 20 105.042 20H127.958C128.583 20 129 20.5001 129 21.25V22V23.75V24C129 24.6 128.583 25 127.958 25H122.75H105.042Z"/>
</mask>
<path fill-rule="evenodd" clip-rule="evenodd" d="M105.042 25C104.417 25 104 24.6 104 24H104.016C104.006 23.9203 104 23.8368 104 23.75V21.25C104 20.4999 104.417 20 105.042 20H127.958C128.583 20 129 20.5001 129 21.25V22V23.75V24C129 24.6 128.583 25 127.958 25H122.75H105.042Z" fill="#E2E5E8"/>
<path d="M104 24V23.625H103.625V24H104ZM104.016 24V24.375H104.446L104.388 23.9495L104.016 24ZM104 24.375H104.005V23.625H104V24.375ZM104.011 24.375H104.016V23.625H104.011V24.375ZM104.388 23.9495C104.385 23.9283 104.383 23.9065 104.381 23.8842L103.634 23.9497C103.637 23.9837 103.64 24.0173 103.645 24.0506L104.388 23.9495ZM104.376 23.8177C104.375 23.7956 104.375 23.773 104.375 23.75H103.625C103.625 23.7835 103.626 23.8166 103.627 23.8495L104.376 23.8177ZM104.375 23.75V22.9167H103.625V23.75H104.375ZM104.375 22.0833V21.25H103.625V22.0833H104.375ZM104.375 21.25C104.375 21.0676 104.405 20.9143 104.454 20.7916L103.757 20.5152C103.669 20.7372 103.625 20.986 103.625 21.25H104.375ZM104.685 20.4808C104.777 20.4155 104.895 20.375 105.042 20.375V19.625C104.749 19.625 104.478 19.7083 104.251 19.869L104.685 20.4808ZM105.042 20.375H105.997V19.625H105.042V20.375ZM106.951 20.375H108.861V19.625H106.951V20.375ZM109.816 20.375H111.726V19.625H109.816V20.375ZM112.681 20.375H114.59V19.625H112.681V20.375ZM115.545 20.375H117.455V19.625H115.545V20.375ZM118.41 20.375H120.319V19.625H118.41V20.375ZM121.274 20.375H123.184V19.625H121.274V20.375ZM124.139 20.375H126.049V19.625H124.139V20.375ZM127.003 20.375H127.958V19.625H127.003V20.375ZM127.958 20.375C128.105 20.375 128.223 20.4155 128.315 20.4808L128.749 19.869C128.522 19.7083 128.251 19.625 127.958 19.625V20.375ZM128.546 20.7916C128.595 20.9143 128.625 21.0676 128.625 21.25H129.375C129.375 20.986 129.331 20.7372 129.243 20.5152L128.546 20.7916ZM128.625 21.25V21.5H129.375V21.25H128.625ZM128.625 21.75V22H129.375V21.75H128.625ZM128.625 22V22.5833H129.375V22H128.625ZM128.625 23.1667V23.75H129.375V23.1667H128.625ZM128.625 23.75V23.8334H129.375V23.75H128.625ZM128.625 23.9167V24H129.375V23.9167H128.625ZM128.625 24C128.625 24.1398 128.593 24.2511 128.545 24.3363L129.199 24.7045C129.316 24.4957 129.375 24.2552 129.375 24H128.625ZM128.317 24.5497C128.225 24.5952 128.106 24.625 127.958 24.625V25.375C128.207 25.375 128.442 25.3244 128.649 25.222L128.317 24.5497ZM127.958 24.625H127.09V25.375H127.958V24.625ZM126.222 24.625H124.486V25.375H126.222V24.625ZM123.618 24.625H122.75V25.375H123.618V24.625ZM122.75 24.625H121.766V25.375H122.75V24.625ZM120.782 24.625H118.815V25.375H120.782V24.625ZM117.831 24.625H115.863V25.375H117.831V24.625ZM114.88 24.625H112.912V25.375H114.88V24.625ZM111.928 24.625H109.961V25.375H111.928V24.625ZM108.977 24.625H107.009V25.375H108.977V24.625ZM106.025 24.625H105.042V25.375H106.025V24.625ZM105.042 24.625C104.894 24.625 104.775 24.5952 104.683 24.5497L104.351 25.222C104.558 25.3244 104.793 25.375 105.042 25.375V24.625ZM104.455 24.3363C104.407 24.2511 104.375 24.1398 104.375 24H103.625C103.625 24.2553 103.684 24.4957 103.801 24.7045L104.455 24.3363ZM104 24V23.25H103.25V24H104ZM104.016 24V24.75H104.875L104.76 23.899L104.016 24ZM104 24.75H104.005V23.25H104V24.75ZM104.011 24.75H104.016V23.25H104.011V24.75ZM104.76 23.899C104.758 23.8837 104.756 23.8679 104.754 23.8515L103.26 23.9825C103.264 24.0223 103.268 24.0618 103.273 24.1011L104.76 23.899ZM104.751 23.8017C104.75 23.785 104.75 23.7678 104.75 23.75H103.25C103.25 23.7887 103.251 23.8272 103.252 23.8654L104.751 23.8017ZM104.75 23.75V22.9167H103.25V23.75H104.75ZM104.75 22.0833V21.25H103.25V22.0833H104.75ZM104.75 21.25C104.75 21.1084 104.773 21.0028 104.802 20.9298L103.408 20.377C103.3 20.6487 103.25 20.9452 103.25 21.25H104.75ZM104.902 20.7866C104.927 20.7691 104.967 20.75 105.042 20.75V19.25C104.676 19.25 104.328 19.3548 104.034 19.5631L104.902 20.7866ZM105.042 20.75H105.997V19.25H105.042V20.75ZM106.951 20.75H108.861V19.25H106.951V20.75ZM109.816 20.75H111.726V19.25H109.816V20.75ZM112.681 20.75H114.59V19.25H112.681V20.75ZM115.545 20.75H117.455V19.25H115.545V20.75ZM118.41 20.75H120.319V19.25H118.41V20.75ZM121.274 20.75H123.184V19.25H121.274V20.75ZM124.139 20.75H126.049V19.25H124.139V20.75ZM127.003 20.75H127.958V19.25H127.003V20.75ZM127.958 20.75C128.033 20.75 128.073 20.7691 128.098 20.7866L128.966 19.5631C128.672 19.3548 128.324 19.25 127.958 19.25V20.75ZM128.198 20.9298C128.227 21.0028 128.25 21.1084 128.25 21.25H129.75C129.75 20.9452 129.7 20.6487 129.592 20.377L128.198 20.9298ZM128.25 21.25V21.5H129.75V21.25H128.25ZM128.25 21.75V22H129.75V21.75H128.25ZM128.25 22V22.5833H129.75V22H128.25ZM128.25 23.1667V23.75H129.75V23.1667H128.25ZM128.25 23.75V23.8334H129.75V23.75H128.25ZM128.25 23.9167V24H129.75V23.9167H128.25ZM128.25 24C128.25 24.0821 128.232 24.1288 128.219 24.1521L129.525 24.8887C129.678 24.618 129.75 24.313 129.75 24H128.25ZM128.151 24.2136C128.116 24.2306 128.055 24.25 127.958 24.25V25.75C128.258 25.75 128.551 25.6891 128.816 25.5581L128.151 24.2136ZM127.958 24.25H127.09V25.75H127.958V24.25ZM126.222 24.25H124.486V25.75H126.222V24.25ZM123.618 24.25H122.75V25.75H123.618V24.25ZM122.75 24.25H121.766V25.75H122.75V24.25ZM120.782 24.25H118.815V25.75H120.782V24.25ZM117.831 24.25H115.863V25.75H117.831V24.25ZM114.88 24.25H112.912V25.75H114.88V24.25ZM111.928 24.25H109.961V25.75H111.928V24.25ZM108.977 24.25H107.009V25.75H108.977V24.25ZM106.025 24.25H105.042V25.75H106.025V24.25ZM105.042 24.25C104.945 24.25 104.884 24.2306 104.849 24.2136L104.184 25.5581C104.449 25.6891 104.742 25.75 105.042 25.75V24.25ZM104.781 24.1521C104.768 24.1288 104.75 24.0821 104.75 24H103.25C103.25 24.313 103.322 24.618 103.475 24.8887L104.781 24.1521Z" fill="#959DAB" mask="url(#path-17-inside-7)"/>
<path d="M125.821 15.2499H106.143C106.143 14.6199 106.557 14.2 107.179 14.2H125.821V15.2499Z" fill="#FFCB5B"/>
<mask id="path-20-inside-8" fill="white">
<path fill-rule="evenodd" clip-rule="evenodd" d="M107.179 18.3999H129.964C130.586 18.3999 131 17.98 131 17.3499V15.2499C131 14.62 130.586 14.2 129.964 14.2H107.179C106.557 14.2 106.143 14.6199 106.143 15.2499V17.3499H106.143C106.143 17.7153 106.282 18.0101 106.521 18.1932C106.693 18.3258 106.918 18.3999 107.179 18.3999Z"/>
</mask>
<path fill-rule="evenodd" clip-rule="evenodd" d="M107.179 18.3999H129.964C130.586 18.3999 131 17.98 131 17.3499V15.2499C131 14.62 130.586 14.2 129.964 14.2H107.179C106.557 14.2 106.143 14.6199 106.143 15.2499V17.3499H106.143C106.143 17.7153 106.282 18.0101 106.521 18.1932C106.693 18.3258 106.918 18.3999 107.179 18.3999Z" fill="#E2E5E8"/>
<path d="M106.143 17.3499V17.7249H106.518V17.3499H106.143ZM106.143 17.3499V16.9749H105.768V17.3499H106.143ZM106.521 18.1932L106.749 17.8959L106.749 17.8958L106.521 18.1932ZM129.964 18.0249H129.015V18.7749H129.964V18.0249ZM128.066 18.0249H126.167V18.7749H128.066V18.0249ZM125.217 18.0249H123.319V18.7749H125.217V18.0249ZM122.369 18.0249H120.47V18.7749H122.369V18.0249ZM119.521 18.0249H117.622V18.7749H119.521V18.0249ZM116.673 18.0249H114.774V18.7749H116.673V18.0249ZM113.824 18.0249H111.926V18.7749H113.824V18.0249ZM110.976 18.0249H109.077V18.7749H110.976V18.0249ZM108.128 18.0249H107.179V18.7749H108.128V18.0249ZM107.179 18.0249C107.119 18.0249 107.065 18.0197 107.015 18.0103L106.876 18.7473C106.974 18.7658 107.075 18.7749 107.179 18.7749V18.0249ZM106.871 17.9667C106.825 17.9472 106.785 17.9233 106.749 17.8959L106.292 18.4906C106.378 18.5568 106.473 18.612 106.574 18.6555L106.871 17.9667ZM106.749 17.8958C106.7 17.858 106.658 17.8119 106.623 17.7575L105.99 18.1596C106.071 18.2872 106.173 18.3988 106.292 18.4906L106.749 17.8958ZM106.544 17.5725C106.528 17.5072 106.518 17.433 106.518 17.3499H105.768C105.768 17.4917 105.784 17.6291 105.818 17.7597L106.544 17.5725ZM106.143 17.7249H106.143V16.9749H106.143V17.7249ZM106.143 17.7249H106.143V16.9749H106.143V17.7249ZM106.518 17.3499V16.6499H105.768V17.3499H106.518ZM106.518 15.9499V15.2499H105.768V15.9499H106.518ZM106.518 15.2499C106.518 15.1006 106.549 14.9802 106.597 14.8873L105.931 14.5431C105.822 14.7542 105.768 14.9948 105.768 15.2499H106.518ZM106.824 14.6559C106.914 14.607 107.032 14.575 107.179 14.575V13.825C106.921 13.825 106.679 13.8817 106.467 13.9958L106.824 14.6559ZM107.179 14.575H108.128V13.825H107.179V14.575ZM109.077 14.575H110.976V13.825H109.077V14.575ZM111.926 14.575H113.824V13.825H111.926V14.575ZM114.774 14.575H116.673V13.825H114.774V14.575ZM117.622 14.575H119.521V13.825H117.622V14.575ZM120.47 14.575H122.369V13.825H120.47V14.575ZM123.319 14.575H125.217V13.825H123.319V14.575ZM126.167 14.575H128.066V13.825H126.167V14.575ZM129.015 14.575H129.964V13.825H129.015V14.575ZM129.964 14.575C130.111 14.575 130.229 14.607 130.319 14.6559L130.676 13.9958C130.464 13.8817 130.222 13.825 129.964 13.825V14.575ZM130.546 14.8873C130.594 14.9802 130.625 15.1006 130.625 15.2499H131.375C131.375 14.9948 131.321 14.7542 131.212 14.5431L130.546 14.8873ZM130.625 15.2499V15.9499H131.375V15.2499H130.625ZM130.625 16.6499V17.3499H131.375V16.6499H130.625ZM130.625 17.3499C130.625 17.4992 130.594 17.6197 130.546 17.7126L131.212 18.0567C131.321 17.8457 131.375 17.605 131.375 17.3499H130.625ZM130.319 17.944C130.229 17.9929 130.111 18.0249 129.964 18.0249V18.7749C130.222 18.7749 130.464 18.7182 130.676 18.604L130.319 17.944ZM106.143 17.3499V18.0999H106.893V17.3499H106.143ZM106.143 17.3499V16.5999H105.393V17.3499H106.143ZM106.521 18.1932L106.978 17.5985L106.978 17.5985L106.521 18.1932ZM129.964 17.6499H129.015V19.1499H129.964V17.6499ZM128.066 17.6499H126.167V19.1499H128.066V17.6499ZM125.217 17.6499H123.319V19.1499H125.217V17.6499ZM122.369 17.6499H120.47V19.1499H122.369V17.6499ZM119.521 17.6499H117.622V19.1499H119.521V17.6499ZM116.673 17.6499H114.774V19.1499H116.673V17.6499ZM113.824 17.6499H111.926V19.1499H113.824V17.6499ZM110.976 17.6499H109.077V19.1499H110.976V17.6499ZM108.128 17.6499H107.179V19.1499H108.128V17.6499ZM107.179 17.6499C107.142 17.6499 107.11 17.6466 107.085 17.6418L106.807 19.1158C106.929 19.1388 107.053 19.1499 107.179 19.1499V17.6499ZM107.019 17.6224C107.002 17.6148 106.988 17.6066 106.978 17.5985L106.064 18.7879C106.175 18.8735 106.296 18.9444 106.425 18.9999L107.019 17.6224ZM106.978 17.5985C106.963 17.5876 106.951 17.5742 106.94 17.5565L105.673 18.3606C105.778 18.5249 105.909 18.6692 106.064 18.788L106.978 17.5985ZM106.908 17.4788C106.899 17.4463 106.893 17.4036 106.893 17.3499H105.393C105.393 17.5211 105.413 17.6901 105.455 17.8534L106.908 17.4788ZM106.143 18.0999H106.143V16.5999H106.143V18.0999ZM106.143 18.0999H106.143V16.5999H106.143V18.0999ZM106.893 17.3499V16.6499H105.393V17.3499H106.893ZM106.893 15.9499V15.2499H105.393V15.9499H106.893ZM106.893 15.2499C106.893 15.1535 106.913 15.0932 106.93 15.0594L105.598 14.3711C105.458 14.6412 105.393 14.9419 105.393 15.2499H106.893ZM107.002 14.9859C107.032 14.9696 107.087 14.95 107.179 14.95V13.45C106.866 13.45 106.561 13.519 106.289 13.6658L107.002 14.9859ZM107.179 14.95H108.128V13.45H107.179V14.95ZM109.077 14.95H110.976V13.45H109.077V14.95ZM111.926 14.95H113.824V13.45H111.926V14.95ZM114.774 14.95H116.673V13.45H114.774V14.95ZM117.622 14.95H119.521V13.45H117.622V14.95ZM120.47 14.95H122.369V13.45H120.47V14.95ZM123.319 14.95H125.217V13.45H123.319V14.95ZM126.167 14.95H128.066V13.45H126.167V14.95ZM129.015 14.95H129.964V13.45H129.015V14.95ZM129.964 14.95C130.056 14.95 130.111 14.9696 130.141 14.9859L130.854 13.6658C130.582 13.519 130.277 13.45 129.964 13.45V14.95ZM130.212 15.0594C130.23 15.0932 130.25 15.1535 130.25 15.2499H131.75C131.75 14.9419 131.685 14.6412 131.545 14.3711L130.212 15.0594ZM130.25 15.2499V15.9499H131.75V15.2499H130.25ZM130.25 16.6499V17.3499H131.75V16.6499H130.25ZM130.25 17.3499C130.25 17.4464 130.23 17.5067 130.212 17.5405L131.545 18.2288C131.685 17.9587 131.75 17.6579 131.75 17.3499H130.25ZM130.141 17.614C130.111 17.6302 130.056 17.6499 129.964 17.6499V19.1499C130.277 19.1499 130.582 19.0809 130.854 18.9341L130.141 17.614Z" fill="#959DAB" mask="url(#path-20-inside-8)"/>
<mask id="path-22-inside-9" fill="white">
<path fill-rule="evenodd" clip-rule="evenodd" d="M104.286 14.725C104.469 14.9 104.729 15 105.042 15H122.75H127.958C128.583 15 129 14.6 129 14V12V12C129 11.4 128.583 11 127.958 11H105.042C104.417 11 104 11.4 104 12V14V14C104 14.0188 104 14.0373 104.001 14.0557C104.006 14.1548 104.022 14.2481 104.048 14.3346C104.096 14.4881 104.177 14.62 104.286 14.725Z"/>
</mask>
<path fill-rule="evenodd" clip-rule="evenodd" d="M104.286 14.725C104.469 14.9 104.729 15 105.042 15H122.75H127.958C128.583 15 129 14.6 129 14V12V12C129 11.4 128.583 11 127.958 11H105.042C104.417 11 104 11.4 104 12V14V14C104 14.0188 104 14.0373 104.001 14.0557C104.006 14.1548 104.022 14.2481 104.048 14.3346C104.096 14.4881 104.177 14.62 104.286 14.725Z" fill="#E2E5E8"/>
<path d="M104.286 14.725L104.546 14.4545L104.546 14.4545L104.286 14.725ZM104.001 14.0557L104.376 14.0392L104.376 14.0392L104.001 14.0557ZM104.048 14.3346L104.407 14.2237L104.407 14.2237L104.048 14.3346ZM105.042 14.625C104.97 14.625 104.905 14.618 104.847 14.6056L104.691 15.3391C104.804 15.3631 104.921 15.375 105.042 15.375V14.625ZM104.679 14.5476C104.628 14.5217 104.583 14.4903 104.546 14.4545L104.027 14.9955C104.12 15.0846 104.225 15.1589 104.341 15.2174L104.679 14.5476ZM104.546 14.4545C104.525 14.434 104.505 14.4118 104.488 14.3879L103.882 14.8304C103.926 14.8896 103.974 14.9448 104.027 14.9955L104.546 14.4545ZM104.441 14.3109C104.428 14.2841 104.416 14.255 104.407 14.2237L103.69 14.4454C103.711 14.5141 103.738 14.5806 103.769 14.6442L104.441 14.3109ZM104.407 14.2237C104.401 14.2051 104.396 14.1857 104.391 14.1654L103.658 14.3208C103.667 14.363 103.678 14.4046 103.69 14.4454L104.407 14.2237ZM104.381 14.1037C104.379 14.083 104.377 14.0615 104.376 14.0392L103.627 14.0722C103.628 14.1139 103.632 14.1552 103.637 14.196L104.381 14.1037ZM104.376 14.0392C104.376 14.0349 104.376 14.0306 104.375 14.0262L103.626 14.048C103.626 14.0561 103.626 14.0641 103.627 14.0722L104.376 14.0392ZM104.375 14.0132C104.375 14.0088 104.375 14.0044 104.375 14H103.625C103.625 14.008 103.625 14.016 103.625 14.024L104.375 14.0132ZM104.375 14V14H103.625V14H104.375ZM104.375 14V14H103.625V14H104.375ZM104.375 14V13.3333H103.625V14H104.375ZM104.375 12.6667V12H103.625V12.6667H104.375ZM104.375 12C104.375 11.8602 104.407 11.7489 104.455 11.6637L103.801 11.2955C103.684 11.5043 103.625 11.7447 103.625 12H104.375ZM104.683 11.4503C104.775 11.4048 104.894 11.375 105.042 11.375V10.625C104.793 10.625 104.558 10.6756 104.351 10.778L104.683 11.4503ZM105.042 11.375H105.997V10.625H105.042V11.375ZM106.951 11.375H108.861V10.625H106.951V11.375ZM109.816 11.375H111.726V10.625H109.816V11.375ZM112.681 11.375H114.59V10.625H112.681V11.375ZM115.545 11.375H117.455V10.625H115.545V11.375ZM118.41 11.375H120.319V10.625H118.41V11.375ZM121.274 11.375H123.184V10.625H121.274V11.375ZM124.139 11.375H126.049V10.625H124.139V11.375ZM127.003 11.375H127.958V10.625H127.003V11.375ZM127.958 11.375C128.106 11.375 128.225 11.4048 128.317 11.4503L128.649 10.778C128.442 10.6756 128.207 10.625 127.958 10.625V11.375ZM128.545 11.6637C128.593 11.7489 128.625 11.8602 128.625 12H129.375C129.375 11.7448 129.316 11.5043 129.199 11.2955L128.545 11.6637ZM128.625 12V12H129.375V12H128.625ZM128.625 12V12H129.375V12H128.625ZM128.625 12V12.6667H129.375V12H128.625ZM128.625 13.3333V14H129.375V13.3333H128.625ZM128.625 14C128.625 14.1398 128.593 14.2511 128.545 14.3363L129.199 14.7045C129.316 14.4957 129.375 14.2552 129.375 14H128.625ZM128.317 14.5497C128.225 14.5952 128.106 14.625 127.958 14.625V15.375C128.207 15.375 128.442 15.3244 128.649 15.222L128.317 14.5497ZM127.958 14.625H127.09V15.375H127.958V14.625ZM126.222 14.625H124.486V15.375H126.222V14.625ZM123.618 14.625H122.75V15.375H123.618V14.625ZM122.75 14.625H121.766V15.375H122.75V14.625ZM120.782 14.625H118.815V15.375H120.782V14.625ZM117.831 14.625H115.863V15.375H117.831V14.625ZM114.88 14.625H112.912V15.375H114.88V14.625ZM111.928 14.625H109.961V15.375H111.928V14.625ZM108.977 14.625H107.009V15.375H108.977V14.625ZM106.025 14.625H105.042V15.375H106.025V14.625ZM104.286 14.725L104.806 14.184L104.806 14.184L104.286 14.725ZM104.001 14.0557L104.75 14.0227L104.75 14.0227L104.001 14.0557ZM104.048 14.3346L104.765 14.1129L104.765 14.1129L104.048 14.3346ZM105.042 14.25C104.995 14.25 104.956 14.2454 104.925 14.2388L104.613 15.7059C104.753 15.7357 104.896 15.75 105.042 15.75V14.25ZM104.848 14.2128C104.829 14.2031 104.815 14.1931 104.806 14.184L103.767 15.266C103.888 15.3817 104.024 15.4775 104.173 15.5522L104.848 14.2128ZM104.806 14.184C104.8 14.1786 104.795 14.1729 104.791 14.1666L103.58 15.0517C103.636 15.1286 103.698 15.2002 103.767 15.266L104.806 14.184ZM104.777 14.1443C104.773 14.1358 104.769 14.1254 104.765 14.1129L103.332 14.5563C103.359 14.6437 103.393 14.7288 103.433 14.8108L104.777 14.1443ZM104.765 14.1129C104.763 14.1054 104.76 14.097 104.758 14.0877L103.291 14.3985C103.302 14.4517 103.316 14.5044 103.332 14.5563L104.765 14.1129ZM104.753 14.0576C104.752 14.0469 104.751 14.0353 104.75 14.0227L103.252 14.0886C103.254 14.1401 103.258 14.1913 103.265 14.2421L104.753 14.0576ZM104.75 14.0227C104.75 14.0203 104.75 14.0178 104.75 14.0153L103.251 14.0589C103.251 14.0688 103.252 14.0787 103.252 14.0886L104.75 14.0227ZM104.75 14.0078C104.75 14.0052 104.75 14.0026 104.75 14H103.25C103.25 14.0098 103.25 14.0196 103.25 14.0294L104.75 14.0078ZM104.75 14V14H103.25V14H104.75ZM104.75 14V14H103.25V14H104.75ZM104.75 14V13.3333H103.25V14H104.75ZM104.75 12.6667V12H103.25V12.6667H104.75ZM104.75 12C104.75 11.9179 104.768 11.8712 104.781 11.8479L103.475 11.1113C103.322 11.382 103.25 11.687 103.25 12H104.75ZM104.849 11.7864C104.884 11.7694 104.945 11.75 105.042 11.75V10.25C104.742 10.25 104.449 10.3109 104.184 10.4419L104.849 11.7864ZM105.042 11.75H105.997V10.25H105.042V11.75ZM106.951 11.75H108.861V10.25H106.951V11.75ZM109.816 11.75H111.726V10.25H109.816V11.75ZM112.681 11.75H114.59V10.25H112.681V11.75ZM115.545 11.75H117.455V10.25H115.545V11.75ZM118.41 11.75H120.319V10.25H118.41V11.75ZM121.274 11.75H123.184V10.25H121.274V11.75ZM124.139 11.75H126.049V10.25H124.139V11.75ZM127.003 11.75H127.958V10.25H127.003V11.75ZM127.958 11.75C128.055 11.75 128.116 11.7694 128.151 11.7864L128.816 10.4419C128.551 10.3109 128.258 10.25 127.958 10.25V11.75ZM128.219 11.8479C128.232 11.8712 128.25 11.9179 128.25 12H129.75C129.75 11.687 129.678 11.382 129.525 11.1113L128.219 11.8479ZM128.25 12V12H129.75V12H128.25ZM128.25 12V12H129.75V12H128.25ZM128.25 12V12.6667H129.75V12H128.25ZM128.25 13.3333V14H129.75V13.3333H128.25ZM128.25 14C128.25 14.0821 128.232 14.1288 128.219 14.1521L129.525 14.8887C129.678 14.618 129.75 14.313 129.75 14H128.25ZM128.151 14.2136C128.116 14.2306 128.055 14.25 127.958 14.25V15.75C128.258 15.75 128.551 15.6891 128.816 15.5581L128.151 14.2136ZM127.958 14.25H127.09V15.75H127.958V14.25ZM126.222 14.25H124.486V15.75H126.222V14.25ZM123.618 14.25H122.75V15.75H123.618V14.25ZM122.75 14.25H121.766V15.75H122.75V14.25ZM120.782 14.25H118.815V15.75H120.782V14.25ZM117.831 14.25H115.863V15.75H117.831V14.25ZM114.88 14.25H112.912V15.75H114.88V14.25ZM111.928 14.25H109.961V15.75H111.928V14.25ZM108.977 14.25H107.009V15.75H108.977V14.25ZM106.025 14.25H105.042V15.75H106.025V14.25Z" fill="#959DAB" mask="url(#path-22-inside-9)"/>
<path d="M121.679 19.4499H102C102 18.8199 102.414 18.3999 103.036 18.3999H121.679V19.4499Z" fill="#FFCB5B"/>
<mask id="path-25-inside-10" fill="white">
<path fill-rule="evenodd" clip-rule="evenodd" d="M103.036 21.6H125.821C126.443 21.6 126.857 21.1799 126.857 20.5499V18.4499C126.857 17.8199 126.443 17.3999 125.821 17.3999H103.036C102.414 17.3999 102 17.8199 102 18.4499V20.5499V20.5499C102 21.1799 102.414 21.6 103.036 21.6Z"/>
</mask>
<path fill-rule="evenodd" clip-rule="evenodd" d="M103.036 21.6H125.821C126.443 21.6 126.857 21.1799 126.857 20.5499V18.4499C126.857 17.8199 126.443 17.3999 125.821 17.3999H103.036C102.414 17.3999 102 17.8199 102 18.4499V20.5499V20.5499C102 21.1799 102.414 21.6 103.036 21.6Z" fill="#E2E5E8"/>
<path d="M126.857 20.5499H126.482V20.55L126.857 20.5499ZM125.821 21.225H124.872V21.975H125.821V21.225ZM123.923 21.225H122.024V21.975H123.923V21.225ZM121.074 21.225H119.176V21.975H121.074V21.225ZM118.226 21.225H116.327V21.975H118.226V21.225ZM115.378 21.225H113.479V21.975H115.378V21.225ZM112.53 21.225H110.631V21.975H112.53V21.225ZM109.682 21.225H107.783V21.975H109.682V21.225ZM106.833 21.225H104.934V21.975H106.833V21.225ZM103.985 21.225H103.036V21.975H103.985V21.225ZM103.036 21.225C102.889 21.225 102.771 21.1929 102.681 21.144L102.324 21.804C102.536 21.9182 102.778 21.975 103.036 21.975V21.225ZM102.454 20.9126C102.406 20.8196 102.375 20.6992 102.375 20.5499H101.625C101.625 20.805 101.679 21.0456 101.788 21.2567L102.454 20.9126ZM102.375 20.5499V20.5499H101.625V20.5499H102.375ZM102.375 20.5499V20.5499H101.625V20.5499H102.375ZM102.375 20.5499V19.8499H101.625V20.5499H102.375ZM102.375 19.1499V18.4499H101.625V19.1499H102.375ZM102.375 18.4499C102.375 18.3006 102.406 18.1802 102.454 18.0872L101.788 17.7431C101.679 17.9541 101.625 18.1948 101.625 18.4499H102.375ZM102.681 17.8558C102.771 17.8069 102.889 17.7749 103.036 17.7749V17.0249C102.778 17.0249 102.536 17.0816 102.324 17.1958L102.681 17.8558ZM103.036 17.7749H103.985V17.0249H103.036V17.7749ZM104.934 17.7749H106.833V17.0249H104.934V17.7749ZM107.783 17.7749H109.682V17.0249H107.783V17.7749ZM110.631 17.7749H112.53V17.0249H110.631V17.7749ZM113.479 17.7749H115.378V17.0249H113.479V17.7749ZM116.327 17.7749H118.226V17.0249H116.327V17.7749ZM119.176 17.7749H121.074V17.0249H119.176V17.7749ZM122.024 17.7749H123.923V17.0249H122.024V17.7749ZM124.872 17.7749H125.821V17.0249H124.872V17.7749ZM125.821 17.7749C125.968 17.7749 126.086 17.8069 126.177 17.8558L126.533 17.1958C126.321 17.0816 126.079 17.0249 125.821 17.0249V17.7749ZM126.403 18.0872C126.451 18.1802 126.482 18.3006 126.482 18.4499H127.232C127.232 18.1948 127.178 17.9541 127.069 17.7431L126.403 18.0872ZM126.482 18.4499V19.1499H127.232V18.4499H126.482ZM126.482 19.8499V20.5499H127.232V19.8499H126.482ZM126.482 20.55C126.482 20.6992 126.451 20.8197 126.403 20.9126L127.069 21.2567C127.178 21.0456 127.232 20.8049 127.232 20.5498L126.482 20.55ZM126.177 21.144C126.086 21.1929 125.968 21.225 125.821 21.225V21.975C126.079 21.975 126.321 21.9182 126.533 21.8041L126.177 21.144ZM126.857 20.5499H126.107V20.55L126.857 20.5499ZM125.821 20.85H124.872V22.35H125.821V20.85ZM123.923 20.85H122.024V22.35H123.923V20.85ZM121.074 20.85H119.176V22.35H121.074V20.85ZM118.226 20.85H116.327V22.35H118.226V20.85ZM115.378 20.85H113.479V22.35H115.378V20.85ZM112.53 20.85H110.631V22.35H112.53V20.85ZM109.682 20.85H107.783V22.35H109.682V20.85ZM106.833 20.85H104.934V22.35H106.833V20.85ZM103.985 20.85H103.036V22.35H103.985V20.85ZM103.036 20.85C102.944 20.85 102.889 20.8303 102.859 20.814L102.146 22.134C102.418 22.2809 102.723 22.35 103.036 22.35V20.85ZM102.788 20.7405C102.77 20.7066 102.75 20.6463 102.75 20.5499H101.25C101.25 20.8579 101.315 21.1586 101.455 21.4288L102.788 20.7405ZM102.75 20.5499V20.5499H101.25V20.5499H102.75ZM102.75 20.5499V20.5499H101.25V20.5499H102.75ZM102.75 20.5499V19.8499H101.25V20.5499H102.75ZM102.75 19.1499V18.4499H101.25V19.1499H102.75ZM102.75 18.4499C102.75 18.3535 102.77 18.2932 102.788 18.2593L101.455 17.571C101.315 17.8411 101.25 18.1419 101.25 18.4499H102.75ZM102.859 18.1859C102.889 18.1696 102.944 18.1499 103.036 18.1499V16.6499C102.723 16.6499 102.418 16.719 102.146 16.8658L102.859 18.1859ZM103.036 18.1499H103.985V16.6499H103.036V18.1499ZM104.934 18.1499H106.833V16.6499H104.934V18.1499ZM107.783 18.1499H109.682V16.6499H107.783V18.1499ZM110.631 18.1499H112.53V16.6499H110.631V18.1499ZM113.479 18.1499H115.378V16.6499H113.479V18.1499ZM116.327 18.1499H118.226V16.6499H116.327V18.1499ZM119.176 18.1499H121.074V16.6499H119.176V18.1499ZM122.024 18.1499H123.923V16.6499H122.024V18.1499ZM124.872 18.1499H125.821V16.6499H124.872V18.1499ZM125.821 18.1499C125.913 18.1499 125.968 18.1696 125.998 18.1858L126.711 16.8658C126.439 16.719 126.134 16.6499 125.821 16.6499V18.1499ZM126.07 18.2593C126.087 18.2932 126.107 18.3535 126.107 18.4499H127.607C127.607 18.1419 127.542 17.8411 127.402 17.571L126.07 18.2593ZM126.107 18.4499V19.1499H127.607V18.4499H126.107ZM126.107 19.8499V20.5499H127.607V19.8499H126.107ZM126.107 20.55C126.107 20.6464 126.087 20.7067 126.07 20.7405L127.402 21.4288C127.542 21.1586 127.607 20.8578 127.607 20.5498L126.107 20.55ZM125.998 20.814C125.968 20.8303 125.913 20.85 125.821 20.85V22.35C126.134 22.35 126.439 22.2809 126.711 22.1341L125.998 20.814Z" fill="#959DAB" mask="url(#path-25-inside-10)"/>
<path d="M91.3214 45.85H111C111 45.22 110.586 44.8 109.964 44.8H91.3214V45.85Z" fill="#FFCB5B"/>
<mask id="path-28-inside-11" fill="white">
<path fill-rule="evenodd" clip-rule="evenodd" d="M109.964 45.9999H87.1786C86.5571 45.9999 86.1428 45.5798 86.1429 44.9498V42.8498C86.1429 42.2198 86.5571 41.7998 87.1786 41.7998H109.964C110.586 41.7998 111 42.2198 111 42.8498V44.9498C111 44.9892 110.998 45.0277 110.995 45.0654C110.986 45.1723 110.965 45.2721 110.931 45.3637C110.789 45.757 110.437 45.9999 109.964 45.9999Z"/>
</mask>
<path fill-rule="evenodd" clip-rule="evenodd" d="M109.964 45.9999H87.1786C86.5571 45.9999 86.1428 45.5798 86.1429 44.9498V42.8498C86.1429 42.2198 86.5571 41.7998 87.1786 41.7998H109.964C110.586 41.7998 111 42.2198 111 42.8498V44.9498C111 44.9892 110.998 45.0277 110.995 45.0654C110.986 45.1723 110.965 45.2721 110.931 45.3637C110.789 45.757 110.437 45.9999 109.964 45.9999Z" fill="#E2E5E8"/>
<path d="M86.1429 44.9498H86.5179L86.5179 44.9499L86.1429 44.9498ZM110.995 45.0654L111.369 45.097L111.369 45.097L110.995 45.0654ZM110.931 45.3637L110.579 45.2364L110.579 45.2364L110.931 45.3637ZM87.1786 45.6249H88.128V46.3749H87.1786V45.6249ZM89.0774 45.6249H90.9762V46.3749H89.0774V45.6249ZM91.9256 45.6249H93.8244V46.3749H91.9256V45.6249ZM94.7738 45.6249H96.6726V46.3749H94.7738V45.6249ZM97.622 45.6249H99.5209V46.3749H97.622V45.6249ZM100.47 45.6249H102.369V46.3749H100.47V45.6249ZM103.318 45.6249H105.217V46.3749H103.318V45.6249ZM106.167 45.6249H108.066V46.3749H106.167V45.6249ZM109.015 45.6249H109.964V46.3749H109.015V45.6249ZM109.964 45.6249C110.072 45.6249 110.164 45.6076 110.24 45.5795L110.499 46.2836C110.332 46.3446 110.152 46.3749 109.964 46.3749V45.6249ZM110.448 45.448C110.503 45.3926 110.548 45.3225 110.579 45.2364L111.284 45.4911C111.218 45.6746 111.116 45.8388 110.982 45.9749L110.448 45.448ZM110.579 45.2364C110.586 45.2162 110.593 45.1949 110.598 45.1726L111.325 45.36C111.313 45.4046 111.3 45.4483 111.284 45.4911L110.579 45.2364ZM110.613 45.1049C110.616 45.0821 110.619 45.0584 110.622 45.0338L111.369 45.097C111.365 45.1413 111.36 45.1851 111.352 45.2283L110.613 45.1049ZM110.622 45.0338C110.622 45.0247 110.623 45.0155 110.623 45.0062L111.372 45.0477C111.371 45.0642 111.37 45.0806 111.369 45.097L110.622 45.0338ZM110.625 44.9782C110.625 44.9688 110.625 44.9594 110.625 44.9498H111.375C111.375 44.9661 111.375 44.9824 111.374 44.9986L110.625 44.9782ZM110.625 44.9498V44.2498H111.375V44.9498H110.625ZM110.625 43.5498V42.8498H111.375V43.5498H110.625ZM110.625 42.8498C110.625 42.7005 110.594 42.5801 110.546 42.4871L111.212 42.143C111.321 42.354 111.375 42.5947 111.375 42.8498H110.625ZM110.319 42.2557C110.229 42.2068 110.111 42.1748 109.964 42.1748V41.4248C110.222 41.4248 110.464 41.4815 110.676 41.5957L110.319 42.2557ZM109.964 42.1748H109.015V41.4248H109.964V42.1748ZM108.066 42.1748H106.167V41.4248H108.066V42.1748ZM105.217 42.1748H103.318V41.4248H105.217V42.1748ZM102.369 42.1748H100.47V41.4248H102.369V42.1748ZM99.5209 42.1748H97.6221V41.4248H99.5209V42.1748ZM96.6726 42.1748H94.7738V41.4248H96.6726V42.1748ZM93.8244 42.1748H91.9256V41.4248H93.8244V42.1748ZM90.9762 42.1748H89.0774V41.4248H90.9762V42.1748ZM88.128 42.1748H87.1786V41.4248H88.128V42.1748ZM87.1786 42.1748C87.0319 42.1748 86.9141 42.2068 86.8235 42.2557L86.4673 41.5957C86.6789 41.4815 86.9213 41.4248 87.1786 41.4248V42.1748ZM86.5973 42.4871C86.5493 42.5801 86.5179 42.7005 86.5179 42.8498H85.7679C85.7679 42.5947 85.8219 42.354 85.9309 42.143L86.5973 42.4871ZM86.5179 42.8498V43.5498H85.7679V42.8498H86.5179ZM86.5179 44.2498V44.9498H85.7679V44.2498H86.5179ZM86.5179 44.9499C86.5179 45.0991 86.5492 45.2196 86.5972 45.3125L85.9308 45.6566C85.8218 45.4455 85.7679 45.2048 85.7679 44.9497L86.5179 44.9499ZM86.8235 45.5439C86.9141 45.5928 87.0319 45.6249 87.1786 45.6249V46.3749C86.9213 46.3749 86.6789 46.3181 86.4673 46.204L86.8235 45.5439ZM86.1429 44.9498H86.8929L86.8929 44.9499L86.1429 44.9498ZM110.995 45.0654L111.743 45.1286L111.743 45.1286L110.995 45.0654ZM110.931 45.3637L110.226 45.1091L110.226 45.1091L110.931 45.3637ZM87.1786 45.2499H88.128V46.7499H87.1786V45.2499ZM89.0774 45.2499H90.9762V46.7499H89.0774V45.2499ZM91.9256 45.2499H93.8244V46.7499H91.9256V45.2499ZM94.7738 45.2499H96.6726V46.7499H94.7738V45.2499ZM97.622 45.2499H99.5209V46.7499H97.622V45.2499ZM100.47 45.2499H102.369V46.7499H100.47V45.2499ZM103.318 45.2499H105.217V46.7499H103.318V45.2499ZM106.167 45.2499H108.066V46.7499H106.167V45.2499ZM109.015 45.2499H109.964V46.7499H109.015V45.2499ZM109.964 45.2499C110.031 45.2499 110.079 45.2392 110.111 45.2275L110.628 46.6356C110.417 46.7131 110.192 46.7499 109.964 46.7499V45.2499ZM110.181 45.1845C110.196 45.1695 110.212 45.1465 110.226 45.1091L111.637 45.6184C111.553 45.8506 111.423 46.0619 111.248 46.2384L110.181 45.1845ZM110.226 45.1091C110.229 45.1001 110.232 45.09 110.235 45.0789L111.688 45.4538C111.673 45.5094 111.656 45.5644 111.637 45.6184L110.226 45.1091ZM110.243 45.0432C110.245 45.0306 110.247 45.017 110.248 45.0022L111.743 45.1286C111.738 45.1828 111.731 45.2366 111.722 45.29L110.243 45.0432ZM110.248 45.0022C110.248 44.9968 110.249 44.9912 110.249 44.9854L111.747 45.0684C111.746 45.0885 111.744 45.1086 111.743 45.1286L110.248 45.0022ZM110.25 44.9679C110.25 44.962 110.25 44.956 110.25 44.9498H111.75C111.75 44.9695 111.75 44.9892 111.749 45.0088L110.25 44.9679ZM110.25 44.9498V44.2498H111.75V44.9498H110.25ZM110.25 43.5498V42.8498H111.75V43.5498H110.25ZM110.25 42.8498C110.25 42.7534 110.23 42.6931 110.212 42.6592L111.545 41.9709C111.685 42.241 111.75 42.5418 111.75 42.8498H110.25ZM110.141 42.5858C110.111 42.5695 110.056 42.5498 109.964 42.5498V41.0498C110.277 41.0498 110.582 41.1189 110.854 41.2657L110.141 42.5858ZM109.964 42.5498H109.015V41.0498H109.964V42.5498ZM108.066 42.5498H106.167V41.0498H108.066V42.5498ZM105.217 42.5498H103.318V41.0498H105.217V42.5498ZM102.369 42.5498H100.47V41.0498H102.369V42.5498ZM99.5209 42.5498H97.6221V41.0498H99.5209V42.5498ZM96.6726 42.5498H94.7738V41.0498H96.6726V42.5498ZM93.8244 42.5498H91.9256V41.0498H93.8244V42.5498ZM90.9762 42.5498H89.0774V41.0498H90.9762V42.5498ZM88.128 42.5498H87.1786V41.0498H88.128V42.5498ZM87.1786 42.5498C87.0871 42.5498 87.0317 42.5695 87.0016 42.5858L86.2892 41.2657C86.5613 41.1189 86.8661 41.0498 87.1786 41.0498V42.5498ZM86.9304 42.6592C86.913 42.6931 86.8929 42.7534 86.8929 42.8498H85.3929C85.3929 42.5418 85.4582 42.241 85.5977 41.9709L86.9304 42.6592ZM86.8929 42.8498V43.5498H85.3929V42.8498H86.8929ZM86.8929 44.2498V44.9498H85.3929V44.2498H86.8929ZM86.8929 44.9499C86.8929 45.0463 86.9129 45.1066 86.9304 45.1404L85.5976 45.8287C85.4581 45.5585 85.3929 45.2577 85.3929 44.9497L86.8929 44.9499ZM87.0015 45.2139C87.0317 45.2302 87.0871 45.2499 87.1786 45.2499V46.7499C86.8661 46.7499 86.5613 46.6808 86.2892 46.534L87.0015 45.2139Z" fill="#959DAB" mask="url(#path-28-inside-11)"/>
<mask id="path-30-inside-12" fill="white">
<path fill-rule="evenodd" clip-rule="evenodd" d="M107.958 43C108.583 43 109 42.6 109 42H108.984C108.994 41.9203 109 41.8368 109 41.75V39.25C109 38.4999 108.583 38 107.958 38H85.0416C84.4166 38 84 38.5001 84 39.25V40V41.75V42C84 42.6 84.4166 43 85.0416 43H90.25H107.958Z"/>
</mask>
<path fill-rule="evenodd" clip-rule="evenodd" d="M107.958 43C108.583 43 109 42.6 109 42H108.984C108.994 41.9203 109 41.8368 109 41.75V39.25C109 38.4999 108.583 38 107.958 38H85.0416C84.4166 38 84 38.5001 84 39.25V40V41.75V42C84 42.6 84.4166 43 85.0416 43H90.25H107.958Z" fill="#E2E5E8"/>
<path d="M109 42V41.625H109.375V42H109ZM108.984 42V42.375H108.554L108.612 41.9495L108.984 42ZM109 42.375H108.995V41.625H109V42.375ZM108.989 42.375H108.984V41.625H108.989V42.375ZM108.612 41.9495C108.615 41.9283 108.617 41.9065 108.619 41.8842L109.366 41.9497C109.363 41.9837 109.36 42.0173 109.355 42.0506L108.612 41.9495ZM108.624 41.8177C108.625 41.7956 108.625 41.773 108.625 41.75H109.375C109.375 41.7835 109.374 41.8166 109.373 41.8495L108.624 41.8177ZM108.625 41.75V40.9167H109.375V41.75H108.625ZM108.625 40.0833V39.25H109.375V40.0833H108.625ZM108.625 39.25C108.625 39.0676 108.595 38.9143 108.546 38.7916L109.243 38.5152C109.331 38.7372 109.375 38.986 109.375 39.25H108.625ZM108.315 38.4808C108.223 38.4155 108.105 38.375 107.958 38.375V37.625C108.251 37.625 108.522 37.7083 108.749 37.869L108.315 38.4808ZM107.958 38.375H107.003V37.625H107.958V38.375ZM106.049 38.375H104.139V37.625H106.049V38.375ZM103.184 38.375H101.274V37.625H103.184V38.375ZM100.319 38.375H98.4097V37.625H100.319V38.375ZM97.4549 38.375H95.5451V37.625H97.4549V38.375ZM94.5903 38.375H92.6805V37.625H94.5903V38.375ZM91.7257 38.375H89.816V37.625H91.7257V38.375ZM88.8611 38.375H86.9514V37.625H88.8611V38.375ZM85.9965 38.375H85.0416V37.625H85.9965V38.375ZM85.0416 38.375C84.8945 38.375 84.7772 38.4155 84.6852 38.4808L84.2513 37.869C84.4778 37.7083 84.7488 37.625 85.0416 37.625V38.375ZM84.4538 38.7916C84.4052 38.9143 84.375 39.0676 84.375 39.25H83.625C83.625 38.986 83.6686 38.7372 83.7566 38.5152L84.4538 38.7916ZM84.375 39.25V39.5H83.625V39.25H84.375ZM84.375 39.75V40H83.625V39.75H84.375ZM84.375 40V40.5833H83.625V40H84.375ZM84.375 41.1667V41.75H83.625V41.1667H84.375ZM84.375 41.75V41.8334H83.625V41.75H84.375ZM84.375 41.9167V42H83.625V41.9167H84.375ZM84.375 42C84.375 42.1398 84.4067 42.2511 84.4547 42.3363L83.8014 42.7045C83.6836 42.4957 83.625 42.2552 83.625 42H84.375ZM84.6831 42.5497C84.7751 42.5952 84.8942 42.625 85.0416 42.625V43.375C84.7929 43.375 84.5578 43.3244 84.3506 43.222L84.6831 42.5497ZM85.0416 42.625H85.9097V43.375H85.0416V42.625ZM86.7778 42.625H88.5139V43.375H86.7778V42.625ZM89.3819 42.625H90.25V43.375H89.3819V42.625ZM90.25 42.625H91.2338V43.375H90.25V42.625ZM92.2176 42.625H94.1852V43.375H92.2176V42.625ZM95.169 42.625H97.1366V43.375H95.169V42.625ZM98.1204 42.625H100.088V43.375H98.1204V42.625ZM101.072 42.625H103.039V43.375H101.072V42.625ZM104.023 42.625H105.991V43.375H104.023V42.625ZM106.975 42.625H107.958V43.375H106.975V42.625ZM107.958 42.625C108.106 42.625 108.225 42.5952 108.317 42.5497L108.649 43.222C108.442 43.3244 108.207 43.375 107.958 43.375V42.625ZM108.545 42.3363C108.593 42.2511 108.625 42.1398 108.625 42H109.375C109.375 42.2553 109.316 42.4957 109.199 42.7045L108.545 42.3363ZM109 42V41.25H109.75V42H109ZM108.984 42V42.75H108.125L108.24 41.899L108.984 42ZM109 42.75H108.995V41.25H109V42.75ZM108.989 42.75H108.984V41.25H108.989V42.75ZM108.24 41.899C108.242 41.8837 108.244 41.8679 108.246 41.8515L109.74 41.9825C109.736 42.0223 109.732 42.0618 109.727 42.1011L108.24 41.899ZM108.249 41.8017C108.25 41.785 108.25 41.7678 108.25 41.75H109.75C109.75 41.7887 109.749 41.8272 109.748 41.8654L108.249 41.8017ZM108.25 41.75V40.9167H109.75V41.75H108.25ZM108.25 40.0833V39.25H109.75V40.0833H108.25ZM108.25 39.25C108.25 39.1084 108.227 39.0028 108.198 38.9298L109.592 38.377C109.7 38.6487 109.75 38.9452 109.75 39.25H108.25ZM108.098 38.7866C108.073 38.7691 108.033 38.75 107.958 38.75V37.25C108.324 37.25 108.672 37.3548 108.966 37.5631L108.098 38.7866ZM107.958 38.75H107.003V37.25H107.958V38.75ZM106.049 38.75H104.139V37.25H106.049V38.75ZM103.184 38.75H101.274V37.25H103.184V38.75ZM100.319 38.75H98.4097V37.25H100.319V38.75ZM97.4549 38.75H95.5451V37.25H97.4549V38.75ZM94.5903 38.75H92.6805V37.25H94.5903V38.75ZM91.7257 38.75H89.816V37.25H91.7257V38.75ZM88.8611 38.75H86.9514V37.25H88.8611V38.75ZM85.9965 38.75H85.0416V37.25H85.9965V38.75ZM85.0416 38.75C84.9674 38.75 84.9269 38.7691 84.9022 38.7866L84.0344 37.5631C84.3282 37.3548 84.676 37.25 85.0416 37.25V38.75ZM84.8024 38.9298C84.7735 39.0028 84.75 39.1084 84.75 39.25H83.25C83.25 38.9452 83.3003 38.6487 83.408 38.377L84.8024 38.9298ZM84.75 39.25V39.5H83.25V39.25H84.75ZM84.75 39.75V40H83.25V39.75H84.75ZM84.75 40V40.5833H83.25V40H84.75ZM84.75 41.1667V41.75H83.25V41.1667H84.75ZM84.75 41.75V41.8334H83.25V41.75H84.75ZM84.75 41.9167V42H83.25V41.9167H84.75ZM84.75 42C84.75 42.0821 84.7682 42.1288 84.7814 42.1521L83.4747 42.8887C83.3221 42.618 83.25 42.313 83.25 42H84.75ZM84.8493 42.2136C84.8837 42.2306 84.9449 42.25 85.0416 42.25V43.75C84.7422 43.75 84.4491 43.6891 84.1843 43.5581L84.8493 42.2136ZM85.0416 42.25H85.9097V43.75H85.0416V42.25ZM86.7778 42.25H88.5139V43.75H86.7778V42.25ZM89.3819 42.25H90.25V43.75H89.3819V42.25ZM90.25 42.25H91.2338V43.75H90.25V42.25ZM92.2176 42.25H94.1852V43.75H92.2176V42.25ZM95.169 42.25H97.1366V43.75H95.169V42.25ZM98.1204 42.25H100.088V43.75H98.1204V42.25ZM101.072 42.25H103.039V43.75H101.072V42.25ZM104.023 42.25H105.991V43.75H104.023V42.25ZM106.975 42.25H107.958V43.75H106.975V42.25ZM107.958 42.25C108.055 42.25 108.116 42.2306 108.151 42.2136L108.816 43.5581C108.551 43.6891 108.258 43.75 107.958 43.75V42.25ZM108.219 42.1521C108.232 42.1288 108.25 42.0821 108.25 42H109.75C109.75 42.313 109.678 42.618 109.525 42.8887L108.219 42.1521Z" fill="#959DAB" mask="url(#path-30-inside-12)"/>
<path d="M87.1786 33.2499H106.857C106.857 32.6199 106.443 32.2 105.821 32.2H87.1786V33.2499Z" fill="#FFCB5B"/>
<mask id="path-33-inside-13" fill="white">
<path fill-rule="evenodd" clip-rule="evenodd" d="M105.821 36.3999H83.0356C82.4142 36.3999 82 35.98 82 35.3499V33.2499C82 32.62 82.4142 32.2 83.0356 32.2H105.821C106.443 32.2 106.857 32.6199 106.857 33.2499V35.3499H106.857C106.857 35.7153 106.718 36.0101 106.479 36.1932C106.307 36.3258 106.082 36.3999 105.821 36.3999Z"/>
</mask>
<path fill-rule="evenodd" clip-rule="evenodd" d="M105.821 36.3999H83.0356C82.4142 36.3999 82 35.98 82 35.3499V33.2499C82 32.62 82.4142 32.2 83.0356 32.2H105.821C106.443 32.2 106.857 32.6199 106.857 33.2499V35.3499H106.857C106.857 35.7153 106.718 36.0101 106.479 36.1932C106.307 36.3258 106.082 36.3999 105.821 36.3999Z" fill="#E2E5E8"/>
<path d="M106.857 35.3499V35.7249H106.482V35.3499H106.857ZM106.857 35.3499V34.9749H107.232V35.3499H106.857ZM106.479 36.1932L106.251 35.8959L106.251 35.8958L106.479 36.1932ZM83.0356 36.0249H83.9851V36.7749H83.0356V36.0249ZM84.9345 36.0249H86.8333V36.7749H84.9345V36.0249ZM87.7827 36.0249H89.6815V36.7749H87.7827V36.0249ZM90.6309 36.0249H92.5297V36.7749H90.6309V36.0249ZM93.4791 36.0249H95.3779V36.7749H93.4791V36.0249ZM96.3273 36.0249H98.2261V36.7749H96.3273V36.0249ZM99.1755 36.0249H101.074V36.7749H99.1755V36.0249ZM102.024 36.0249H103.923V36.7749H102.024V36.0249ZM104.872 36.0249H105.821V36.7749H104.872V36.0249ZM105.821 36.0249C105.881 36.0249 105.935 36.0197 105.985 36.0103L106.124 36.7473C106.026 36.7658 105.925 36.7749 105.821 36.7749V36.0249ZM106.129 35.9667C106.175 35.9472 106.215 35.9233 106.251 35.8959L106.708 36.4906C106.622 36.5568 106.527 36.612 106.426 36.6555L106.129 35.9667ZM106.251 35.8958C106.3 35.858 106.342 35.8119 106.377 35.7575L107.01 36.1596C106.929 36.2872 106.827 36.3988 106.708 36.4906L106.251 35.8958ZM106.456 35.5725C106.472 35.5072 106.482 35.433 106.482 35.3499H107.232C107.232 35.4917 107.216 35.6291 107.182 35.7597L106.456 35.5725ZM106.857 35.7249H106.857V34.9749H106.857V35.7249ZM106.857 35.7249H106.857V34.9749H106.857V35.7249ZM106.482 35.3499V34.6499H107.232V35.3499H106.482ZM106.482 33.9499V33.2499H107.232V33.9499H106.482ZM106.482 33.2499C106.482 33.1006 106.451 32.9802 106.403 32.8873L107.069 32.5431C107.178 32.7542 107.232 32.9948 107.232 33.2499H106.482ZM106.176 32.6559C106.086 32.607 105.968 32.575 105.821 32.575V31.825C106.079 31.825 106.321 31.8817 106.533 31.9958L106.176 32.6559ZM105.821 32.575H104.872V31.825H105.821V32.575ZM103.923 32.575H102.024V31.825H103.923V32.575ZM101.074 32.575H99.1755V31.825H101.074V32.575ZM98.2261 32.575H96.3273V31.825H98.2261V32.575ZM95.3779 32.575H93.4791V31.825H95.3779V32.575ZM92.5297 32.575H90.6309V31.825H92.5297V32.575ZM89.6815 32.575H87.7827V31.825H89.6815V32.575ZM86.8333 32.575H84.9345V31.825H86.8333V32.575ZM83.985 32.575H83.0356V31.825H83.985V32.575ZM83.0356 32.575C82.8889 32.575 82.7711 32.607 82.6805 32.6559L82.3244 31.9958C82.536 31.8817 82.7784 31.825 83.0356 31.825V32.575ZM82.4543 32.8873C82.4063 32.9802 82.375 33.1006 82.375 33.2499H81.625C81.625 32.9948 81.6789 32.7542 81.7879 32.5431L82.4543 32.8873ZM82.375 33.2499V33.9499H81.625V33.2499H82.375ZM82.375 34.6499V35.3499H81.625V34.6499H82.375ZM82.375 35.3499C82.375 35.4992 82.4063 35.6197 82.4543 35.7126L81.7879 36.0567C81.6789 35.8457 81.625 35.605 81.625 35.3499H82.375ZM82.6805 35.944C82.7711 35.9929 82.8889 36.0249 83.0356 36.0249V36.7749C82.7784 36.7749 82.536 36.7182 82.3244 36.604L82.6805 35.944ZM106.857 35.3499V36.0999H106.107V35.3499H106.857ZM106.857 35.3499V34.5999H107.607V35.3499H106.857ZM106.479 36.1932L106.022 35.5985L106.022 35.5985L106.479 36.1932ZM83.0356 35.6499H83.9851V37.1499H83.0356V35.6499ZM84.9345 35.6499H86.8333V37.1499H84.9345V35.6499ZM87.7827 35.6499H89.6815V37.1499H87.7827V35.6499ZM90.6309 35.6499H92.5297V37.1499H90.6309V35.6499ZM93.4791 35.6499H95.3779V37.1499H93.4791V35.6499ZM96.3273 35.6499H98.2261V37.1499H96.3273V35.6499ZM99.1755 35.6499H101.074V37.1499H99.1755V35.6499ZM102.024 35.6499H103.923V37.1499H102.024V35.6499ZM104.872 35.6499H105.821V37.1499H104.872V35.6499ZM105.821 35.6499C105.858 35.6499 105.89 35.6466 105.915 35.6418L106.193 37.1158C106.071 37.1388 105.947 37.1499 105.821 37.1499V35.6499ZM105.981 35.6224C105.998 35.6148 106.012 35.6066 106.022 35.5985L106.936 36.7879C106.825 36.8735 106.704 36.9444 106.575 36.9999L105.981 35.6224ZM106.022 35.5985C106.037 35.5876 106.049 35.5742 106.06 35.5565L107.327 36.3606C107.222 36.5249 107.091 36.6692 106.936 36.788L106.022 35.5985ZM106.092 35.4788C106.101 35.4463 106.107 35.4036 106.107 35.3499H107.607C107.607 35.5211 107.587 35.6901 107.545 35.8534L106.092 35.4788ZM106.857 36.0999H106.857V34.5999H106.857V36.0999ZM106.857 36.0999H106.857V34.5999H106.857V36.0999ZM106.107 35.3499V34.6499H107.607V35.3499H106.107ZM106.107 33.9499V33.2499H107.607V33.9499H106.107ZM106.107 33.2499C106.107 33.1535 106.087 33.0932 106.07 33.0594L107.402 32.3711C107.542 32.6412 107.607 32.9419 107.607 33.2499H106.107ZM105.998 32.9859C105.968 32.9696 105.913 32.95 105.821 32.95V31.45C106.134 31.45 106.439 31.519 106.711 31.6658L105.998 32.9859ZM105.821 32.95H104.872V31.45H105.821V32.95ZM103.923 32.95H102.024V31.45H103.923V32.95ZM101.074 32.95H99.1755V31.45H101.074V32.95ZM98.2261 32.95H96.3273V31.45H98.2261V32.95ZM95.3779 32.95H93.4791V31.45H95.3779V32.95ZM92.5297 32.95H90.6309V31.45H92.5297V32.95ZM89.6815 32.95H87.7827V31.45H89.6815V32.95ZM86.8333 32.95H84.9345V31.45H86.8333V32.95ZM83.985 32.95H83.0356V31.45H83.985V32.95ZM83.0356 32.95C82.9442 32.95 82.8887 32.9696 82.8586 32.9859L82.1463 31.6658C82.4184 31.519 82.7231 31.45 83.0356 31.45V32.95ZM82.7875 33.0594C82.77 33.0932 82.75 33.1535 82.75 33.2499H81.25C81.25 32.9419 81.3152 32.6412 81.4547 32.3711L82.7875 33.0594ZM82.75 33.2499V33.9499H81.25V33.2499H82.75ZM82.75 34.6499V35.3499H81.25V34.6499H82.75ZM82.75 35.3499C82.75 35.4464 82.77 35.5067 82.7875 35.5405L81.4547 36.2288C81.3152 35.9587 81.25 35.6579 81.25 35.3499H82.75ZM82.8586 35.614C82.8887 35.6302 82.9441 35.6499 83.0356 35.6499V37.1499C82.7232 37.1499 82.4184 37.0809 82.1463 36.9341L82.8586 35.614Z" fill="#959DAB" mask="url(#path-33-inside-13)"/>
<mask id="path-35-inside-14" fill="white">
<path fill-rule="evenodd" clip-rule="evenodd" d="M108.714 32.725C108.531 32.9 108.271 33 107.958 33H90.25H85.0416C84.4166 33 84 32.6 84 32V30V30C84 29.4 84.4166 29 85.0416 29H107.958C108.583 29 109 29.4 109 30V32V32C109 32.0188 109 32.0373 108.999 32.0557C108.994 32.1548 108.978 32.2481 108.952 32.3346C108.904 32.4881 108.823 32.62 108.714 32.725Z"/>
</mask>
<path fill-rule="evenodd" clip-rule="evenodd" d="M108.714 32.725C108.531 32.9 108.271 33 107.958 33H90.25H85.0416C84.4166 33 84 32.6 84 32V30V30C84 29.4 84.4166 29 85.0416 29H107.958C108.583 29 109 29.4 109 30V32V32C109 32.0188 109 32.0373 108.999 32.0557C108.994 32.1548 108.978 32.2481 108.952 32.3346C108.904 32.4881 108.823 32.62 108.714 32.725Z" fill="#E2E5E8"/>
<path d="M108.714 32.725L108.454 32.4545L108.454 32.4545L108.714 32.725ZM108.999 32.0557L108.624 32.0392L108.624 32.0392L108.999 32.0557ZM108.952 32.3346L108.593 32.2237L108.593 32.2237L108.952 32.3346ZM107.958 32.625C108.03 32.625 108.095 32.618 108.153 32.6056L108.309 33.3391C108.196 33.3631 108.079 33.375 107.958 33.375V32.625ZM108.321 32.5476C108.372 32.5217 108.417 32.4903 108.454 32.4545L108.973 32.9955C108.88 33.0846 108.775 33.1589 108.659 33.2174L108.321 32.5476ZM108.454 32.4545C108.475 32.434 108.495 32.4118 108.512 32.3879L109.118 32.8304C109.074 32.8896 109.026 32.9448 108.973 32.9955L108.454 32.4545ZM108.559 32.3109C108.572 32.2841 108.584 32.255 108.593 32.2237L109.31 32.4454C109.289 32.5141 109.262 32.5806 109.231 32.6442L108.559 32.3109ZM108.593 32.2237C108.599 32.2051 108.604 32.1857 108.609 32.1654L109.342 32.3208C109.333 32.363 109.322 32.4046 109.31 32.4454L108.593 32.2237ZM108.619 32.1037C108.621 32.083 108.623 32.0615 108.624 32.0392L109.373 32.0722C109.372 32.1139 109.368 32.1552 109.363 32.196L108.619 32.1037ZM108.624 32.0392C108.624 32.0349 108.624 32.0306 108.625 32.0262L109.374 32.048C109.374 32.0561 109.374 32.0641 109.373 32.0722L108.624 32.0392ZM108.625 32.0132C108.625 32.0088 108.625 32.0044 108.625 32H109.375C109.375 32.008 109.375 32.016 109.375 32.024L108.625 32.0132ZM108.625 32V32H109.375V32H108.625ZM108.625 32V32H109.375V32H108.625ZM108.625 32V31.3333H109.375V32H108.625ZM108.625 30.6667V30H109.375V30.6667H108.625ZM108.625 30C108.625 29.8602 108.593 29.7489 108.545 29.6637L109.199 29.2955C109.316 29.5043 109.375 29.7447 109.375 30H108.625ZM108.317 29.4503C108.225 29.4048 108.106 29.375 107.958 29.375V28.625C108.207 28.625 108.442 28.6756 108.649 28.778L108.317 29.4503ZM107.958 29.375H107.003V28.625H107.958V29.375ZM106.049 29.375H104.139V28.625H106.049V29.375ZM103.184 29.375H101.274V28.625H103.184V29.375ZM100.319 29.375H98.4097V28.625H100.319V29.375ZM97.4549 29.375H95.5451V28.625H97.4549V29.375ZM94.5903 29.375H92.6805V28.625H94.5903V29.375ZM91.7257 29.375H89.816V28.625H91.7257V29.375ZM88.8611 29.375H86.9514V28.625H88.8611V29.375ZM85.9965 29.375H85.0416V28.625H85.9965V29.375ZM85.0416 29.375C84.8942 29.375 84.7751 29.4048 84.6831 29.4503L84.3506 28.778C84.5578 28.6756 84.7929 28.625 85.0416 28.625V29.375ZM84.4547 29.6637C84.4067 29.7489 84.375 29.8602 84.375 30H83.625C83.625 29.7448 83.6836 29.5043 83.8013 29.2955L84.4547 29.6637ZM84.375 30V30H83.625V30H84.375ZM84.375 30V30H83.625V30H84.375ZM84.375 30V30.6667H83.625V30H84.375ZM84.375 31.3333V32H83.625V31.3333H84.375ZM84.375 32C84.375 32.1398 84.4067 32.2511 84.4547 32.3363L83.8013 32.7045C83.6836 32.4957 83.625 32.2552 83.625 32H84.375ZM84.6831 32.5497C84.7751 32.5952 84.8942 32.625 85.0416 32.625V33.375C84.7929 33.375 84.5578 33.3244 84.3506 33.222L84.6831 32.5497ZM85.0416 32.625H85.9097V33.375H85.0416V32.625ZM86.7778 32.625H88.5139V33.375H86.7778V32.625ZM89.3819 32.625H90.25V33.375H89.3819V32.625ZM90.25 32.625H91.2338V33.375H90.25V32.625ZM92.2176 32.625H94.1852V33.375H92.2176V32.625ZM95.169 32.625H97.1366V33.375H95.169V32.625ZM98.1204 32.625H100.088V33.375H98.1204V32.625ZM101.072 32.625H103.039V33.375H101.072V32.625ZM104.023 32.625H105.991V33.375H104.023V32.625ZM106.975 32.625H107.958V33.375H106.975V32.625ZM108.714 32.725L108.194 32.184L108.194 32.184L108.714 32.725ZM108.999 32.0557L108.25 32.0227L108.25 32.0227L108.999 32.0557ZM108.952 32.3346L108.235 32.1129L108.235 32.1129L108.952 32.3346ZM107.958 32.25C108.005 32.25 108.044 32.2454 108.075 32.2388L108.387 33.7059C108.247 33.7357 108.104 33.75 107.958 33.75V32.25ZM108.152 32.2128C108.171 32.2031 108.185 32.1931 108.194 32.184L109.233 33.266C109.112 33.3817 108.976 33.4775 108.827 33.5522L108.152 32.2128ZM108.194 32.184C108.2 32.1786 108.205 32.1729 108.209 32.1666L109.42 33.0517C109.364 33.1286 109.302 33.2002 109.233 33.266L108.194 32.184ZM108.223 32.1443C108.227 32.1358 108.231 32.1254 108.235 32.1129L109.668 32.5563C109.641 32.6437 109.607 32.7288 109.567 32.8108L108.223 32.1443ZM108.235 32.1129C108.237 32.1054 108.24 32.097 108.242 32.0877L109.709 32.3985C109.698 32.4517 109.684 32.5044 109.668 32.5563L108.235 32.1129ZM108.247 32.0576C108.248 32.0469 108.249 32.0353 108.25 32.0227L109.748 32.0886C109.746 32.1401 109.742 32.1913 109.735 32.2421L108.247 32.0576ZM108.25 32.0227C108.25 32.0203 108.25 32.0178 108.25 32.0153L109.749 32.0589C109.749 32.0688 109.748 32.0787 109.748 32.0886L108.25 32.0227ZM108.25 32.0078C108.25 32.0052 108.25 32.0026 108.25 32H109.75C109.75 32.0098 109.75 32.0196 109.75 32.0294L108.25 32.0078ZM108.25 32V32H109.75V32H108.25ZM108.25 32V32H109.75V32H108.25ZM108.25 32V31.3333H109.75V32H108.25ZM108.25 30.6667V30H109.75V30.6667H108.25ZM108.25 30C108.25 29.9179 108.232 29.8712 108.219 29.8479L109.525 29.1113C109.678 29.382 109.75 29.687 109.75 30H108.25ZM108.151 29.7864C108.116 29.7694 108.055 29.75 107.958 29.75V28.25C108.258 28.25 108.551 28.3109 108.816 28.4419L108.151 29.7864ZM107.958 29.75H107.003V28.25H107.958V29.75ZM106.049 29.75H104.139V28.25H106.049V29.75ZM103.184 29.75H101.274V28.25H103.184V29.75ZM100.319 29.75H98.4097V28.25H100.319V29.75ZM97.4549 29.75H95.5451V28.25H97.4549V29.75ZM94.5903 29.75H92.6805V28.25H94.5903V29.75ZM91.7257 29.75H89.816V28.25H91.7257V29.75ZM88.8611 29.75H86.9514V28.25H88.8611V29.75ZM85.9965 29.75H85.0416V28.25H85.9965V29.75ZM85.0416 29.75C84.9449 29.75 84.8837 29.7694 84.8493 29.7864L84.1843 28.4419C84.4491 28.3109 84.7422 28.25 85.0416 28.25V29.75ZM84.7814 29.8479C84.7682 29.8712 84.75 29.9179 84.75 30H83.25C83.25 29.687 83.3221 29.382 83.4747 29.1113L84.7814 29.8479ZM84.75 30V30H83.25V30H84.75ZM84.75 30V30H83.25V30H84.75ZM84.75 30V30.6667H83.25V30H84.75ZM84.75 31.3333V32H83.25V31.3333H84.75ZM84.75 32C84.75 32.0821 84.7682 32.1288 84.7814 32.1521L83.4747 32.8887C83.3221 32.618 83.25 32.313 83.25 32H84.75ZM84.8493 32.2136C84.8837 32.2306 84.9449 32.25 85.0416 32.25V33.75C84.7422 33.75 84.4491 33.6891 84.1843 33.5581L84.8493 32.2136ZM85.0416 32.25H85.9097V33.75H85.0416V32.25ZM86.7778 32.25H88.5139V33.75H86.7778V32.25ZM89.3819 32.25H90.25V33.75H89.3819V32.25ZM90.25 32.25H91.2338V33.75H90.25V32.25ZM92.2176 32.25H94.1852V33.75H92.2176V32.25ZM95.169 32.25H97.1366V33.75H95.169V32.25ZM98.1204 32.25H100.088V33.75H98.1204V32.25ZM101.072 32.25H103.039V33.75H101.072V32.25ZM104.023 32.25H105.991V33.75H104.023V32.25ZM106.975 32.25H107.958V33.75H106.975V32.25Z" fill="#959DAB" mask="url(#path-35-inside-14)"/>
<path d="M91.3214 37.4499H111C111 36.8199 110.586 36.3999 109.964 36.3999H91.3214V37.4499Z" fill="#FFCB5B"/>
<mask id="path-38-inside-15" fill="white">
<path fill-rule="evenodd" clip-rule="evenodd" d="M109.964 39.6H87.1786C86.5571 39.6 86.1428 39.1799 86.1429 38.5499V36.4499C86.1429 35.8199 86.5571 35.3999 87.1786 35.3999H109.964C110.586 35.3999 111 35.8199 111 36.4499V38.5499V38.5499C111 39.1799 110.586 39.6 109.964 39.6Z"/>
</mask>
<path fill-rule="evenodd" clip-rule="evenodd" d="M109.964 39.6H87.1786C86.5571 39.6 86.1428 39.1799 86.1429 38.5499V36.4499C86.1429 35.8199 86.5571 35.3999 87.1786 35.3999H109.964C110.586 35.3999 111 35.8199 111 36.4499V38.5499V38.5499C111 39.1799 110.586 39.6 109.964 39.6Z" fill="#E2E5E8"/>
<path d="M86.1429 38.5499H86.5179V38.55L86.1429 38.5499ZM87.1786 39.225H88.128V39.975H87.1786V39.225ZM89.0774 39.225H90.9762V39.975H89.0774V39.225ZM91.9256 39.225H93.8244V39.975H91.9256V39.225ZM94.7738 39.225H96.6726V39.975H94.7738V39.225ZM97.622 39.225H99.5209V39.975H97.622V39.225ZM100.47 39.225H102.369V39.975H100.47V39.225ZM103.318 39.225H105.217V39.975H103.318V39.225ZM106.167 39.225H108.066V39.975H106.167V39.225ZM109.015 39.225H109.964V39.975H109.015V39.225ZM109.964 39.225C110.111 39.225 110.229 39.1929 110.319 39.144L110.676 39.804C110.464 39.9182 110.222 39.975 109.964 39.975V39.225ZM110.546 38.9126C110.594 38.8196 110.625 38.6992 110.625 38.5499H111.375C111.375 38.805 111.321 39.0456 111.212 39.2567L110.546 38.9126ZM110.625 38.5499V38.5499H111.375V38.5499H110.625ZM110.625 38.5499V38.5499H111.375V38.5499H110.625ZM110.625 38.5499V37.8499H111.375V38.5499H110.625ZM110.625 37.1499V36.4499H111.375V37.1499H110.625ZM110.625 36.4499C110.625 36.3006 110.594 36.1802 110.546 36.0872L111.212 35.7431C111.321 35.9541 111.375 36.1948 111.375 36.4499H110.625ZM110.319 35.8558C110.229 35.8069 110.111 35.7749 109.964 35.7749V35.0249C110.222 35.0249 110.464 35.0816 110.676 35.1958L110.319 35.8558ZM109.964 35.7749H109.015V35.0249H109.964V35.7749ZM108.066 35.7749H106.167V35.0249H108.066V35.7749ZM105.217 35.7749H103.318V35.0249H105.217V35.7749ZM102.369 35.7749H100.47V35.0249H102.369V35.7749ZM99.5209 35.7749H97.6221V35.0249H99.5209V35.7749ZM96.6726 35.7749H94.7738V35.0249H96.6726V35.7749ZM93.8244 35.7749H91.9256V35.0249H93.8244V35.7749ZM90.9762 35.7749H89.0774V35.0249H90.9762V35.7749ZM88.128 35.7749H87.1786V35.0249H88.128V35.7749ZM87.1786 35.7749C87.0319 35.7749 86.9141 35.8069 86.8235 35.8558L86.4673 35.1958C86.6789 35.0816 86.9213 35.0249 87.1786 35.0249V35.7749ZM86.5973 36.0872C86.5493 36.1802 86.5179 36.3006 86.5179 36.4499H85.7679C85.7679 36.1948 85.8219 35.9541 85.9309 35.7431L86.5973 36.0872ZM86.5179 36.4499V37.1499H85.7679V36.4499H86.5179ZM86.5179 37.8499V38.5499H85.7679V37.8499H86.5179ZM86.5179 38.55C86.5179 38.6992 86.5492 38.8197 86.5972 38.9126L85.9308 39.2567C85.8218 39.0456 85.7679 38.8049 85.7679 38.5498L86.5179 38.55ZM86.8235 39.144C86.9141 39.1929 87.0319 39.225 87.1786 39.225V39.975C86.9213 39.975 86.6789 39.9182 86.4673 39.8041L86.8235 39.144ZM86.1429 38.5499H86.8929V38.55L86.1429 38.5499ZM87.1786 38.85H88.128V40.35H87.1786V38.85ZM89.0774 38.85H90.9762V40.35H89.0774V38.85ZM91.9256 38.85H93.8244V40.35H91.9256V38.85ZM94.7738 38.85H96.6726V40.35H94.7738V38.85ZM97.622 38.85H99.5209V40.35H97.622V38.85ZM100.47 38.85H102.369V40.35H100.47V38.85ZM103.318 38.85H105.217V40.35H103.318V38.85ZM106.167 38.85H108.066V40.35H106.167V38.85ZM109.015 38.85H109.964V40.35H109.015V38.85ZM109.964 38.85C110.056 38.85 110.111 38.8303 110.141 38.814L110.854 40.134C110.582 40.2809 110.277 40.35 109.964 40.35V38.85ZM110.212 38.7405C110.23 38.7066 110.25 38.6463 110.25 38.5499H111.75C111.75 38.8579 111.685 39.1586 111.545 39.4288L110.212 38.7405ZM110.25 38.5499V38.5499H111.75V38.5499H110.25ZM110.25 38.5499V38.5499H111.75V38.5499H110.25ZM110.25 38.5499V37.8499H111.75V38.5499H110.25ZM110.25 37.1499V36.4499H111.75V37.1499H110.25ZM110.25 36.4499C110.25 36.3535 110.23 36.2932 110.212 36.2593L111.545 35.571C111.685 35.8411 111.75 36.1419 111.75 36.4499H110.25ZM110.141 36.1859C110.111 36.1696 110.056 36.1499 109.964 36.1499V34.6499C110.277 34.6499 110.582 34.719 110.854 34.8658L110.141 36.1859ZM109.964 36.1499H109.015V34.6499H109.964V36.1499ZM108.066 36.1499H106.167V34.6499H108.066V36.1499ZM105.217 36.1499H103.318V34.6499H105.217V36.1499ZM102.369 36.1499H100.47V34.6499H102.369V36.1499ZM99.5209 36.1499H97.6221V34.6499H99.5209V36.1499ZM96.6726 36.1499H94.7738V34.6499H96.6726V36.1499ZM93.8244 36.1499H91.9256V34.6499H93.8244V36.1499ZM90.9762 36.1499H89.0774V34.6499H90.9762V36.1499ZM88.128 36.1499H87.1786V34.6499H88.128V36.1499ZM87.1786 36.1499C87.0871 36.1499 87.0317 36.1696 87.0016 36.1858L86.2892 34.8658C86.5613 34.719 86.8661 34.6499 87.1786 34.6499V36.1499ZM86.9304 36.2593C86.913 36.2932 86.8929 36.3535 86.8929 36.4499H85.3929C85.3929 36.1419 85.4582 35.8411 85.5977 35.571L86.9304 36.2593ZM86.8929 36.4499V37.1499H85.3929V36.4499H86.8929ZM86.8929 37.8499V38.5499H85.3929V37.8499H86.8929ZM86.8929 38.55C86.8929 38.6464 86.9129 38.7067 86.9304 38.7405L85.5976 39.4288C85.4581 39.1586 85.3929 38.8578 85.3929 38.5498L86.8929 38.55ZM87.0015 38.814C87.0317 38.8303 87.0871 38.85 87.1786 38.85V40.35C86.8661 40.35 86.5613 40.2809 86.2892 40.1341L87.0015 38.814Z" fill="#959DAB" mask="url(#path-38-inside-15)"/>
<path d="M87.5112 7.58647L43.3073 0.0256132C42.3337 -0.140577 41.4094 0.51939 41.2443 1.49975L38.5 18L40.5909 27.0447C41.5788 27.0447 42.3794 27.8517 42.3794 28.8464L85.4144 30.7732L88.9743 9.66465C89.1405 8.68349 88.4851 7.75346 87.5112 7.58647Z" fill="#D9DDE1"/>
<path d="M50.3213 10.1432L46.788 9.5228C45.8124 9.35142 45.159 8.4162 45.3292 7.43384C45.4998 6.45148 46.4285 5.79351 47.4041 5.96489L50.9374 6.58531C51.913 6.75669 52.5664 7.69191 52.3962 8.67427C52.2256 9.65663 51.2968 10.3146 50.3213 10.1432Z" fill="#6B778A"/>
<path d="M60.9195 12.0028L57.3863 11.3828C56.4107 11.211 55.7573 10.2758 55.9275 9.2934C56.0981 8.31144 57.0268 7.65307 58.0024 7.82486L61.5357 8.44487C62.5108 8.61626 63.1647 9.55188 62.9941 10.5338C62.8239 11.517 61.8959 12.1746 60.9195 12.0028Z" fill="#6B778A"/>
<path d="M84.6255 47.9999H39.7885C38.8006 47.9999 38 47.1929 38 46.1978V19.1048C38 18.1096 38.8006 17.3035 39.7885 17.3035H84.6255C85.6134 17.3035 86.4144 18.1096 86.4144 19.1048V46.1978C86.4144 47.1929 85.6134 47.9999 84.6255 47.9999Z" fill="#5B8EFF"/>
<path d="M56.6396 33.555H44.4643C43.3694 33.555 42.4827 32.6613 42.4827 31.5599V24.7165C42.4827 23.6143 43.3706 22.7214 44.4643 22.7214H56.6396C57.7342 22.7214 58.6209 23.6151 58.6209 24.7165V31.5599C58.6209 32.6613 57.7334 33.555 56.6396 33.555Z" fill="#FFD33F"/>
<path d="M45.1725 22.7214H46.9657V33.555H45.1725V22.7214Z" fill="#FAA41B"/>
<path d="M46.0692 29.041H58.621V30.8463H46.0692V29.041Z" fill="#FAA41B"/>
<path d="M46.0692 25.4297H58.621V27.2354H46.0692V25.4297Z" fill="#FAA41B"/>
<path d="M47.862 42.5831H44.2759C43.2853 42.5831 42.4827 41.7749 42.4827 40.7774C42.4827 39.7799 43.2853 38.9717 44.2759 38.9717H47.862C48.853 38.9717 49.6552 39.7799 49.6552 40.7774C49.6552 41.7741 48.853 42.5831 47.862 42.5831Z" fill="#AAC4FF"/>
<path d="M58.621 42.5831H55.0345C54.0439 42.5831 53.2417 41.7749 53.2417 40.7774C53.2417 39.7799 54.0439 38.9717 55.0345 38.9717H58.621C59.6116 38.9717 60.4142 39.7799 60.4142 40.7774C60.4142 41.7741 59.6116 42.5831 58.621 42.5831Z" fill="#AAC4FF"/>
<path d="M81.9313 34.4578H70.2761C69.7814 34.4578 69.3795 34.0535 69.3795 33.555C69.3795 33.0568 69.7814 32.6521 70.2761 32.6521H81.9313C82.4264 32.6521 82.8279 33.0568 82.8279 33.555C82.8279 34.0535 82.4264 34.4578 81.9313 34.4578Z" fill="#AAC4FF"/>
<path d="M66.6901 34.4578H63.1036C62.6089 34.4578 62.207 34.0535 62.207 33.555C62.207 33.0568 62.6089 32.6521 63.1036 32.6521H66.6901C67.1848 32.6521 67.5863 33.0568 67.5863 33.555C67.5863 34.0535 67.1848 34.4578 66.6901 34.4578Z" fill="#AAC4FF"/>
<path d="M63.1035 26.3325H81.9312V29.944H63.1035V26.3325Z" fill="#AAC4FF"/>
<path d="M74.7588 23.6243H63.1036C62.6089 23.6243 62.207 23.2196 62.207 22.7215C62.207 22.2229 62.6089 21.8186 63.1036 21.8186H74.7588C75.2539 21.8186 75.6554 22.2229 75.6554 22.7215C75.6554 23.2196 75.2539 23.6243 74.7588 23.6243Z" fill="#AAC4FF"/>
<path d="M81.9313 23.6243H78.3452C77.8501 23.6243 77.4486 23.2196 77.4486 22.7215C77.4486 22.2229 77.8501 21.8186 78.3452 21.8186H81.9313C82.4264 21.8186 82.8279 22.2229 82.8279 22.7215C82.8279 23.2196 82.4264 23.6243 81.9313 23.6243Z" fill="#AAC4FF"/>
<path d="M78.3452 40.7775C78.3452 42.7718 76.7397 44.3886 74.7588 44.3886C72.7783 44.3886 71.1727 42.7718 71.1727 40.7775C71.1727 38.7833 72.7783 37.1665 74.7588 37.1665C76.7397 37.1665 78.3452 38.7833 78.3452 40.7775Z" fill="#FFD33F"/>
<path d="M73.8622 40.7775C73.8622 42.7718 72.2566 44.3886 70.2761 44.3886C68.2956 44.3886 66.6901 42.7718 66.6901 40.7775C66.6901 38.7833 68.2956 37.1665 70.2761 37.1665C72.2566 37.1665 73.8622 38.7833 73.8622 40.7775Z" fill="#DD352E"/>
<defs>
<filter id="filter0_f" x="0" y="36" width="165" height="21" filterUnits="userSpaceOnUse" color-interpolation-filters="sRGB">
<feFlood flood-opacity="0" result="BackgroundImageFix"/>
<feBlend mode="normal" in="SourceGraphic" in2="BackgroundImageFix" result="shape"/>
<feGaussianBlur stdDeviation="3.5" result="effect1_foregroundBlur"/>
</filter>
</defs>
</svg>
