<svg width="30" height="30" viewBox="0 0 30 30" fill="none" xmlns="http://www.w3.org/2000/svg">
<circle cx="15" cy="15" r="15" fill="#5B8EFF"/>
<circle cx="15" cy="15" r="11.5" stroke="white" stroke-opacity="0.512"/>
<path d="M15.9663 16.7261H14.2085L13.9595 9.33594H16.2153L15.9663 16.7261ZM15.0874 17.8833C15.4438 17.8833 15.7295 17.9883 15.9443 18.1982C16.1641 18.4082 16.2739 18.6768 16.2739 19.0039C16.2739 19.3262 16.1641 19.5923 15.9443 19.8022C15.7295 20.0122 15.4438 20.1172 15.0874 20.1172C14.7358 20.1172 14.4502 20.0122 14.2305 19.8022C14.0156 19.5923 13.9082 19.3262 13.9082 19.0039C13.9082 18.6816 14.0156 18.4155 14.2305 18.2056C14.4502 17.9907 14.7358 17.8833 15.0874 17.8833Z" fill="white"/>
</svg>
