<svg width="14" height="14" viewBox="0 0 14 14" fill="none" xmlns="http://www.w3.org/2000/svg">
<circle cx="7" cy="7" r="7" fill="#EB5555"/>
<path d="M7.77979 8.03564H6.7251L6.57568 3.60156H7.9292L7.77979 8.03564ZM7.25244 8.72998C7.46631 8.72998 7.6377 8.79297 7.7666 8.91895C7.89844 9.04492 7.96436 9.20605 7.96436 9.40234C7.96436 9.5957 7.89844 9.75537 7.7666 9.88135C7.6377 10.0073 7.46631 10.0703 7.25244 10.0703C7.0415 10.0703 6.87012 10.0073 6.73828 9.88135C6.60938 9.75537 6.54492 9.5957 6.54492 9.40234C6.54492 9.20898 6.60938 9.04932 6.73828 8.92334C6.87012 8.79443 7.0415 8.72998 7.25244 8.72998Z" fill="white"/>
<circle cx="7" cy="7" r="5.5" stroke="white" stroke-opacity="0.412"/>
</svg>
