<svg width="67" height="67" viewBox="0 0 67 67" fill="none" xmlns="http://www.w3.org/2000/svg">
<g opacity="0.7">
<path d="M0 0H67V46.2069H0V0Z" fill="#D9DDE1"/>
<path d="M3.46545 3.46558H16.1724V5.77592H3.46545V3.46558Z" fill="#A6ADB9"/>
<path d="M30.0345 3.46558H34.6552V5.77592H30.0345V3.46558Z" fill="#A6ADB9"/>
<path d="M49.6725 18.4826C49.3661 18.4826 49.0724 18.3608 48.8558 18.1442L42.7415 12.0299L38.9375 15.8338L37.3041 14.2004L41.9248 9.57973C42.3759 9.12878 43.1071 9.12878 43.5582 9.57973L49.6725 15.6941L53.4765 11.8901C53.9276 11.4391 54.6588 11.4391 55.1099 11.8901L56.6035 13.3837L61.5627 8.42456L63.1961 10.058L57.4203 15.8338C56.9692 16.2848 56.2379 16.2848 55.7868 15.8338L54.2932 14.3402L50.4892 18.1442C50.2726 18.3608 49.9789 18.4826 49.6725 18.4826Z" fill="#A6ADB9"/>
<path d="M3.46545 10.3965H18.4827V12.7068H3.46545V10.3965Z" fill="#A6ADB9"/>
<path d="M30.0345 10.3965H34.6552V12.7068H30.0345V10.3965Z" fill="#A6ADB9"/>
<path d="M3.46545 17.3276H16.1724V19.638H3.46545V17.3276Z" fill="#A6ADB9"/>
<path d="M30.0345 17.3276H34.6552V19.638H30.0345V17.3276Z" fill="#A6ADB9"/>
<path d="M39.2759 24.2585H41.5862V31.1896H39.2759V24.2585Z" fill="#A6ADB9"/>
<path d="M53.1379 24.2585H55.4483V31.1896H53.1379V24.2585Z" fill="#A6ADB9"/>
<path d="M46.2069 24.2585H48.5173V31.1896H46.2069V24.2585Z" fill="#A6ADB9"/>
<path d="M40.431 34.655H62.3793V66.9999H40.431V34.655Z" fill="#6B778A"/>
<path d="M43.8966 39.2759H58.9138V43.8966H43.8966V39.2759Z" fill="#D9DDE1"/>
<path d="M43.8966 51.9829H47.3621V54.2933H43.8966V51.9829Z" fill="#B2BCCC"/>
<path d="M49.6724 51.9829H53.1379V54.2933H49.6724V51.9829Z" fill="#B2BCCC"/>
<path d="M55.4481 51.9829H58.9136V54.2933H55.4481V51.9829Z" fill="#B2BCCC"/>
<path d="M43.8966 56.6035H47.3621V58.9139H43.8966V56.6035Z" fill="#B2BCCC"/>
<path d="M49.6724 56.6035H53.1379V58.9139H49.6724V56.6035Z" fill="#B2BCCC"/>
<path d="M55.4481 56.6035H58.9136V58.9139H55.4481V56.6035Z" fill="#B2BCCC"/>
<path d="M43.8966 61.2241H47.3621V63.5345H43.8966V61.2241Z" fill="#B2BCCC"/>
<path d="M49.6724 61.2241H53.1379V63.5345H49.6724V61.2241Z" fill="#B2BCCC"/>
<path d="M55.4481 61.2241H58.9136V63.5345H55.4481V61.2241Z" fill="#B2BCCC"/>
<path d="M43.8966 47.3621H47.3621V49.6724H43.8966V47.3621Z" fill="#B2BCCC"/>
<path d="M49.6724 47.3621H53.1379V49.6724H49.6724V47.3621Z" fill="#B2BCCC"/>
<path d="M55.4481 47.3621H58.9136V49.6724H55.4481V47.3621Z" fill="#B2BCCC"/>
<path d="M3.46545 24.2585H18.4827V26.5689H3.46545V24.2585Z" fill="#A6ADB9"/>
<path d="M30.0345 24.2585H34.6552V26.5689H30.0345V24.2585Z" fill="#A6ADB9"/>
<path d="M3.46545 38.1206H16.1724V40.431H3.46545V38.1206Z" fill="#A6ADB9"/>
<path d="M30.0345 38.1206H34.6552V40.431H30.0345V38.1206Z" fill="#A6ADB9"/>
<path d="M3.46545 31.1897H13.862V33.5H3.46545V31.1897Z" fill="#A6ADB9"/>
<path d="M30.0345 31.1897H34.6552V33.5H30.0345V31.1897Z" fill="#A6ADB9"/>
<path d="M60.069 24.2585H62.3793V31.1896H60.069V24.2585Z" fill="#A6ADB9"/>
<path d="M63.5344 21.9483H38.1206C37.4827 21.9483 36.9655 21.4311 36.9655 20.7932V3.46558H39.2758V19.638H63.5344V21.9483Z" fill="#6B778A"/>
<path d="M10.3966 64.6896C16.1384 64.6896 20.7931 60.0349 20.7931 54.293C20.7931 48.5512 16.1384 43.8965 10.3966 43.8965C4.65469 43.8965 0 48.5512 0 54.293C0 60.0349 4.65469 64.6896 10.3966 64.6896Z" fill="#A6ADB9"/>
<path d="M10.3965 50.8276C11.0345 50.8276 11.5517 51.3448 11.5517 51.9827H13.8621C13.856 50.5194 12.9314 49.2176 11.5517 48.7298V47.3621H9.24137V48.7298C7.44032 49.3641 6.49452 51.3385 7.129 53.1395C7.61706 54.5251 8.92746 55.451 10.3965 55.4483C11.0345 55.4483 11.5517 55.9655 11.5517 56.6034C11.5517 57.2414 11.0345 57.7586 10.3965 57.7586C9.7586 57.7586 9.24137 57.2414 9.24137 56.6034H6.93103C6.93709 58.0668 7.86167 59.3686 9.24137 59.8564V61.2241H11.5517V59.8564C13.3528 59.2221 14.2986 57.2477 13.6641 55.4467C13.176 54.0611 11.8656 53.1352 10.3965 53.1379C9.7586 53.1379 9.24137 52.6207 9.24137 51.9827C9.24137 51.3448 9.7586 50.8276 10.3965 50.8276Z" fill="#6B778A"/>
<path d="M21.9484 66.9999C27.6903 66.9999 32.345 62.3452 32.345 56.6033C32.345 50.8615 27.6903 46.2068 21.9484 46.2068C16.2066 46.2068 11.5519 50.8615 11.5519 56.6033C11.5519 62.3452 16.2066 66.9999 21.9484 66.9999Z" fill="#D9DDE1"/>
<path d="M21.9483 55.4482C21.3104 55.4482 20.7931 54.931 20.7931 54.2931C20.7931 53.6551 21.3104 53.1379 21.9483 53.1379C22.5862 53.1379 23.1035 53.6551 23.1035 54.2931H25.4138C25.4078 52.8297 24.4832 51.5279 23.1035 51.0401V49.6724H20.7931V51.0401C18.9921 51.6744 18.0463 53.6488 18.6808 55.4498C19.1688 56.8354 20.4792 57.7615 21.9483 57.7586C22.5862 57.7586 23.1035 58.2758 23.1035 58.9137C23.1035 59.5517 22.5862 60.0689 21.9483 60.0689C21.3104 60.0689 20.7931 59.5517 20.7931 58.9137H18.4828C18.4889 60.3771 19.4134 61.6789 20.7931 62.1667V63.5344H23.1035V62.1667C24.9045 61.5324 25.8503 59.558 25.2159 57.757C24.7278 56.3714 23.4174 55.4455 21.9483 55.4482Z" fill="#A6ADB9"/>
<path d="M20.7931 3.46558H27.7241V5.77592H20.7931V3.46558Z" fill="#6B778A"/>
<path d="M20.7931 10.3967H27.7241V12.7071H20.7931V10.3967Z" fill="#6B778A"/>
<path d="M20.7931 17.3276H27.7241V19.638H20.7931V17.3276Z" fill="#6B778A"/>
<path d="M20.7931 24.2585H27.7241V26.5689H20.7931V24.2585Z" fill="#6B778A"/>
<path d="M20.7931 38.1208H27.7241V40.4312H20.7931V38.1208Z" fill="#6B778A"/>
<path d="M20.7931 31.1897H27.7241V33.5H20.7931V31.1897Z" fill="#6B778A"/>
</g>
</svg>
