<svg width="165" height="58" viewBox="0 0 165 58" fill="none" xmlns="http://www.w3.org/2000/svg">
<g opacity="0.972" filter="url(#filter0_f)">
<path d="M158 46.5C132 45.6738 123.197 51 81.5 51C39.8025 51 17 46.1061 7 46.5C16.5 46.5 40.8025 44 82.5 44C124.197 44 129.5 46.5 158 46.5Z" fill="#C4C4C4"/>
</g>
<path d="M97.1786 45.0001H119.964C120.586 45.0001 121 44.5801 121 43.95V41.85C121 41.22 120.586 40.8 119.964 40.8H97.1786C96.5571 40.8 96.1429 41.2201 96.1429 41.85V43.95C96.1428 44.5801 96.5571 45.0001 97.1786 45.0001Z" fill="#F6B545"/>
<path d="M101.321 41.85H121C121 41.22 120.586 40.8 119.964 40.8H101.321V41.85Z" fill="#FFCB5B"/>
<path d="M101.321 41.8499V42.8999C101.321 43.5299 101.736 43.9499 102.357 43.9499H121C121 44.5799 120.586 44.9998 119.964 44.9998H102.357H97.1786C96.5571 44.9998 96.1429 44.5798 96.1429 43.9499V41.8499H101.321V41.8499Z" fill="#F19920"/>
<path d="M117.893 43.9499V42.3748C117.893 42.0598 118.1 41.8499 118.411 41.8499C118.721 41.8499 118.929 42.0598 118.929 42.3748V43.9499" fill="#F19920"/>
<path d="M114.786 43.9499V42.3748C114.786 42.0598 114.993 41.8499 115.304 41.8499C115.614 41.8499 115.821 42.0598 115.821 42.3748V43.9499" fill="#F19920"/>
<path d="M111.679 43.9499V42.3748C111.679 42.0598 111.886 41.8499 112.196 41.8499C112.507 41.8499 112.714 42.0598 112.714 42.3748V43.9499" fill="#F19920"/>
<path d="M108.571 43.9499V42.3748C108.571 42.0598 108.779 41.8499 109.089 41.8499C109.4 41.8499 109.607 42.0598 109.607 42.3748V43.9499" fill="#F19920"/>
<path d="M105.464 43.9499V42.3748C105.464 42.0598 105.671 41.8499 105.982 41.8499C106.293 41.8499 106.5 42.0598 106.5 42.3748V43.9499" fill="#F19920"/>
<path d="M102.357 43.9499V42.3748C102.357 42.0598 102.564 41.8499 102.875 41.8499C103.186 41.8499 103.393 42.0598 103.393 42.3748V43.9499" fill="#F19920"/>
<path d="M95.1072 40.8001H117.893C118.514 40.8001 118.929 40.38 118.929 39.7501V37.6501C118.929 37.02 118.514 36.6001 117.893 36.6001H95.1072C94.4857 36.6001 94.0715 37.0201 94.0715 37.6501V39.7501C94.0715 40.3801 94.4857 40.8001 95.1072 40.8001Z" fill="#F6B545"/>
<path d="M99.25 37.6501H118.929C118.929 37.02 118.514 36.6001 117.893 36.6001H99.25V37.6501Z" fill="#FFCB5B"/>
<path d="M99.25 37.65V38.7C99.25 39.33 99.6643 39.7499 100.286 39.7499H118.929C118.929 40.3799 118.514 40.7999 117.893 40.7999H100.286H95.1072C94.4857 40.7999 94.0715 40.3799 94.0715 39.7499V37.6499H99.25V37.65Z" fill="#F19920"/>
<path d="M115.821 39.7499V38.1749C115.821 37.8599 116.029 37.6499 116.339 37.6499C116.65 37.6499 116.857 37.8599 116.857 38.1749V39.7499" fill="#F19920"/>
<path d="M112.714 39.7499V38.1749C112.714 37.8599 112.921 37.6499 113.232 37.6499C113.543 37.6499 113.75 37.8599 113.75 38.1749V39.7499" fill="#F19920"/>
<path d="M109.607 39.7499V38.1749C109.607 37.8599 109.814 37.6499 110.125 37.6499C110.436 37.6499 110.643 37.8599 110.643 38.1749V39.7499" fill="#F19920"/>
<path d="M106.5 39.7499V38.1749C106.5 37.8599 106.707 37.6499 107.018 37.6499C107.329 37.6499 107.536 37.8599 107.536 38.1749V39.7499" fill="#F19920"/>
<path d="M103.393 39.7499V38.1749C103.393 37.8599 103.6 37.6499 103.911 37.6499C104.221 37.6499 104.429 37.8599 104.429 38.1749V39.7499" fill="#F19920"/>
<path d="M100.286 39.7499V38.1749C100.286 37.8599 100.493 37.6499 100.804 37.6499C101.114 37.6499 101.321 37.8599 101.321 38.1749V39.7499" fill="#F19920"/>
<path d="M93.0356 32.3999H115.821C116.443 32.3999 116.857 31.9799 116.857 31.3499V29.2499C116.857 28.6199 116.443 28.2 115.821 28.2H93.0356C92.4142 28.2 92 28.62 92 29.2499V31.3499C92 31.98 92.4142 32.3999 93.0356 32.3999Z" fill="#F6B545"/>
<path d="M97.1786 29.2499H116.857C116.857 28.6199 116.443 28.2 115.821 28.2H97.1786V29.2499Z" fill="#FFCB5B"/>
<path d="M97.1786 29.2498V30.2998C97.1786 30.9298 97.5929 31.3498 98.2143 31.3498H116.857C116.857 31.9798 116.443 32.3998 115.821 32.3998H98.2143H93.0357C92.4142 32.3998 92 31.9797 92 31.3498V29.2498H97.1786V29.2498Z" fill="#F19920"/>
<path d="M113.75 31.3498V29.7747C113.75 29.4597 113.957 29.2498 114.268 29.2498C114.579 29.2498 114.786 29.4597 114.786 29.7747V31.3498" fill="#F19920"/>
<path d="M110.643 31.3498V29.7747C110.643 29.4597 110.85 29.2498 111.161 29.2498C111.471 29.2498 111.678 29.4597 111.678 29.7747V31.3498" fill="#F19920"/>
<path d="M107.536 31.3498V29.7747C107.536 29.4597 107.743 29.2498 108.054 29.2498C108.364 29.2498 108.571 29.4597 108.571 29.7747V31.3498" fill="#F19920"/>
<path d="M104.429 31.3498V29.7747C104.429 29.4597 104.636 29.2498 104.946 29.2498C105.257 29.2498 105.464 29.4597 105.464 29.7747V31.3498" fill="#F19920"/>
<path d="M101.321 31.3498V29.7747C101.321 29.4597 101.528 29.2498 101.839 29.2498C102.15 29.2498 102.357 29.4597 102.357 29.7747V31.3498" fill="#F19920"/>
<path d="M98.2143 31.3498V29.7747C98.2143 29.4597 98.4214 29.2498 98.7322 29.2498C99.0429 29.2498 99.25 29.4597 99.25 29.7747V31.3498" fill="#F19920"/>
<path d="M95.1072 28.2H117.893C118.514 28.2 118.929 27.7799 118.929 27.15V25.05C118.929 24.42 118.514 24 117.893 24H95.1072C94.4857 24 94.0715 24.42 94.0715 25.05V27.15C94.0715 27.7799 94.4857 28.2 95.1072 28.2Z" fill="#F6B545"/>
<path d="M99.25 25.05H118.929C118.929 24.42 118.514 24 117.893 24H99.25V25.05Z" fill="#FFCB5B"/>
<path d="M99.25 25.0499V26.0999C99.25 26.7299 99.6643 27.1498 100.286 27.1498H118.929C118.929 27.7798 118.514 28.1998 117.893 28.1998H100.286H95.1072C94.4857 28.1998 94.0715 27.7798 94.0715 27.1498V25.0498H99.25V25.0499Z" fill="#F19920"/>
<path d="M115.821 27.1498V25.5748C115.821 25.2598 116.029 25.0498 116.339 25.0498C116.65 25.0498 116.857 25.2598 116.857 25.5748V27.1498" fill="#F19920"/>
<path d="M112.714 27.1498V25.5748C112.714 25.2598 112.921 25.0498 113.232 25.0498C113.543 25.0498 113.75 25.2598 113.75 25.5748V27.1498" fill="#F19920"/>
<path d="M109.607 27.1498V25.5748C109.607 25.2598 109.814 25.0498 110.125 25.0498C110.436 25.0498 110.643 25.2598 110.643 25.5748V27.1498" fill="#F19920"/>
<path d="M106.5 27.1498V25.5748C106.5 25.2598 106.707 25.0498 107.018 25.0498C107.329 25.0498 107.536 25.2598 107.536 25.5748V27.1498" fill="#F19920"/>
<path d="M103.393 27.1498V25.5748C103.393 25.2598 103.6 25.0498 103.911 25.0498C104.221 25.0498 104.429 25.2598 104.429 25.5748V27.1498" fill="#F19920"/>
<path d="M100.286 27.1498V25.5748C100.286 25.2598 100.493 25.0498 100.804 25.0498C101.114 25.0498 101.321 25.2598 101.321 25.5748V27.1498" fill="#F19920"/>
<path d="M97.1786 36.6H119.964C120.586 36.6 121 36.1799 121 35.5499V33.4499C121 32.8199 120.586 32.3999 119.964 32.3999H97.1786C96.5571 32.3999 96.1429 32.8199 96.1429 33.4499V35.5499C96.1428 36.1799 96.5571 36.6 97.1786 36.6Z" fill="#F6B545"/>
<path d="M101.321 33.4499H121C121 32.8199 120.586 32.3999 119.964 32.3999H101.321V33.4499Z" fill="#FFCB5B"/>
<path d="M101.321 33.45V34.5C101.321 35.13 101.736 35.55 102.357 35.55H121C121 36.18 120.586 36.5999 119.964 36.5999H102.357H97.1786C96.5571 36.5999 96.1429 36.1799 96.1429 35.55V33.45H101.321V33.45Z" fill="#F19920"/>
<path d="M117.893 35.55V33.9749C117.893 33.6599 118.1 33.45 118.411 33.45C118.721 33.45 118.929 33.6599 118.929 33.9749V35.55" fill="#F19920"/>
<path d="M114.786 35.55V33.9749C114.786 33.6599 114.993 33.45 115.304 33.45C115.614 33.45 115.821 33.6599 115.821 33.9749V35.55" fill="#F19920"/>
<path d="M111.679 35.55V33.9749C111.679 33.6599 111.886 33.45 112.196 33.45C112.507 33.45 112.714 33.6599 112.714 33.9749V35.55" fill="#F19920"/>
<path d="M108.571 35.55V33.9749C108.571 33.6599 108.779 33.45 109.089 33.45C109.4 33.45 109.607 33.6599 109.607 33.9749V35.55" fill="#F19920"/>
<path d="M105.464 35.55V33.9749C105.464 33.6599 105.671 33.45 105.982 33.45C106.293 33.45 106.5 33.6599 106.5 33.9749V35.55" fill="#F19920"/>
<path d="M102.357 35.55V33.9749C102.357 33.6599 102.564 33.45 102.875 33.45C103.186 33.45 103.393 33.6599 103.393 33.9749V35.55" fill="#F19920"/>
<path d="M98.5112 7.58647L54.3073 0.0256132C53.3337 -0.140577 52.4094 0.51939 52.2443 1.49975L49.5 18L51.5909 27.0447C52.5788 27.0447 53.3794 27.8517 53.3794 28.8464L96.4144 30.7732L99.9743 9.66465C100.141 8.68349 99.4851 7.75346 98.5112 7.58647Z" fill="#D9DDE1"/>
<path d="M61.3213 10.1432L57.788 9.5228C56.8124 9.35142 56.159 8.4162 56.3292 7.43384C56.4998 6.45148 57.4285 5.79351 58.4041 5.96489L61.9374 6.58531C62.913 6.75669 63.5664 7.69191 63.3962 8.67427C63.2256 9.65663 62.2968 10.3146 61.3213 10.1432Z" fill="#6B778A"/>
<path d="M71.9195 12.0028L68.3863 11.3828C67.4107 11.211 66.7573 10.2758 66.9275 9.2934C67.0981 8.31144 68.0268 7.65307 69.0024 7.82486L72.5357 8.44487C73.5108 8.61626 74.1647 9.55188 73.9941 10.5338C73.8239 11.517 72.8959 12.1746 71.9195 12.0028Z" fill="#6B778A"/>
<path d="M95.6255 47.9999H50.7885C49.8006 47.9999 49 47.1929 49 46.1978V19.1048C49 18.1096 49.8006 17.3035 50.7885 17.3035H95.6255C96.6134 17.3035 97.4144 18.1096 97.4144 19.1048V46.1978C97.4144 47.1929 96.6134 47.9999 95.6255 47.9999Z" fill="#3D3A58"/>
<path d="M67.6396 33.555H55.4643C54.3694 33.555 53.4827 32.6613 53.4827 31.5599V24.7165C53.4827 23.6143 54.3706 22.7214 55.4643 22.7214H67.6396C68.7342 22.7214 69.6209 23.6151 69.6209 24.7165V31.5599C69.6209 32.6613 68.7334 33.555 67.6396 33.555Z" fill="#FAA41B"/>
<path d="M56.1725 22.7214H57.9657V33.555H56.1725V22.7214Z" fill="#F08015"/>
<path d="M57.0692 29.041H69.621V30.8463H57.0692V29.041Z" fill="#F08015"/>
<path d="M57.0692 25.4297H69.621V27.2354H57.0692V25.4297Z" fill="#F08015"/>
<path d="M58.862 42.5831H55.2759C54.2853 42.5831 53.4827 41.7749 53.4827 40.7774C53.4827 39.7799 54.2853 38.9717 55.2759 38.9717H58.862C59.853 38.9717 60.6552 39.7799 60.6552 40.7774C60.6552 41.7741 59.853 42.5831 58.862 42.5831Z" fill="#7888A0"/>
<path d="M69.621 42.5831H66.0345C65.0439 42.5831 64.2417 41.7749 64.2417 40.7774C64.2417 39.7799 65.0439 38.9717 66.0345 38.9717H69.621C70.6116 38.9717 71.4142 39.7799 71.4142 40.7774C71.4142 41.7741 70.6116 42.5831 69.621 42.5831Z" fill="#7888A0"/>
<path d="M92.9313 34.4578H81.2761C80.7814 34.4578 80.3795 34.0535 80.3795 33.555C80.3795 33.0568 80.7814 32.6521 81.2761 32.6521H92.9313C93.4264 32.6521 93.8279 33.0568 93.8279 33.555C93.8279 34.0535 93.4264 34.4578 92.9313 34.4578Z" fill="#7888A0"/>
<path d="M77.6901 34.4578H74.1036C73.6089 34.4578 73.207 34.0535 73.207 33.555C73.207 33.0568 73.6089 32.6521 74.1036 32.6521H77.6901C78.1848 32.6521 78.5863 33.0568 78.5863 33.555C78.5863 34.0535 78.1848 34.4578 77.6901 34.4578Z" fill="#7888A0"/>
<path d="M74.1035 26.3325H92.9312V29.944H74.1035V26.3325Z" fill="#7888A0"/>
<path d="M85.7588 23.6243H74.1036C73.6089 23.6243 73.207 23.2196 73.207 22.7215C73.207 22.2229 73.6089 21.8186 74.1036 21.8186H85.7588C86.2539 21.8186 86.6554 22.2229 86.6554 22.7215C86.6554 23.2196 86.2539 23.6243 85.7588 23.6243Z" fill="#7888A0"/>
<path d="M92.9313 23.6243H89.3452C88.8501 23.6243 88.4486 23.2196 88.4486 22.7215C88.4486 22.2229 88.8501 21.8186 89.3452 21.8186H92.9313C93.4264 21.8186 93.8279 22.2229 93.8279 22.7215C93.8279 23.2196 93.4264 23.6243 92.9313 23.6243Z" fill="#7888A0"/>
<path d="M89.3452 40.7775C89.3452 42.7718 87.7397 44.3886 85.7588 44.3886C83.7783 44.3886 82.1727 42.7718 82.1727 40.7775C82.1727 38.7833 83.7783 37.1665 85.7588 37.1665C87.7397 37.1665 89.3452 38.7833 89.3452 40.7775Z" fill="#FAA41B"/>
<path d="M84.8622 40.7775C84.8622 42.7718 83.2566 44.3886 81.2761 44.3886C79.2956 44.3886 77.6901 42.7718 77.6901 40.7775C77.6901 38.7833 79.2956 37.1665 81.2761 37.1665C83.2566 37.1665 84.8622 38.7833 84.8622 40.7775Z" fill="#DD352E"/>
<defs>
<filter id="filter0_f" x="0" y="37" width="165" height="21" filterUnits="userSpaceOnUse" color-interpolation-filters="sRGB">
<feFlood flood-opacity="0" result="BackgroundImageFix"/>
<feBlend mode="normal" in="SourceGraphic" in2="BackgroundImageFix" result="shape"/>
<feGaussianBlur stdDeviation="3.5" result="effect1_foregroundBlur"/>
</filter>
</defs>
</svg>
